<?xml version="1.0" standalone="no"?>
  <!DOCTYPE svg PUBLIC "-//W3C//DTD SVG 1.1//EN" "http://www.w3.org/Graphics/SVG/1.1/DTD/svg11.dtd" >
  <svg>
  <metadata>
  Created by font-carrier
  </metadata>
  <defs>
  <font id="Lack-Regular" horiz-adv-x="1197" vert-adv-y="1197" >
    <font-face
      
      font-family="Lack"
      
      font-weight="400"
      
      font-stretch="normal"
      
      units-per-em="1000"
      
      ascent="950"
      
      descent="-250"
      
    />
      <missing-glyph />

      

      
      <glyph glyph-name="uni21" unicode="&#x21;" d="M112 261L112 699L229 699L229 261L112 261M170-7Q136-7 113 15.50Q90 38 90 73Q90 106 113 129.50Q136 153 170 153Q203 153 226.50 129.50Q250 106 250 73Q250 39 226.50 16Q203-7 170-7Z"  horiz-adv-x="340" vert-adv-y="1000"  />

      
      <glyph glyph-name="uni22" unicode="&#x22;" d="M56 452L40 698L149 698L133 452L56 452M232 452L216 698L325 698L309 452L232 452Z"  horiz-adv-x="365" vert-adv-y="1000"  />

      
      <glyph glyph-name="uni23" unicode="&#x23;" d="M56-2L132 188L24 188L24 290L169 290L202 373L67 373L67 475L241 475L308 649L425 649L358 475L459 475L526 649L643 649L576 475L684 475L684 373L537 373L504 290L641 290L641 188L464 188L391-2L274-2L347 188L246 188L173-2L56-2M286 290L387 290L420 373L319 373L286 290Z"  horiz-adv-x="704" vert-adv-y="1000"  />

      
      <glyph glyph-name="uni24" unicode="&#x24;" d="M527 179Q527 110 479 59Q431 8 349-8L349-83L240-83L240-15Q114-7 45 54L45 166Q145 87 272 87Q415 87 415 180Q415 216 383.50 239.50Q352 263 274 295Q165 340 119.50 386.50Q74 433 74 517Q74 581 119 627.50Q164 674 240 691L240 750L349 750L349 698Q424 691 488 647L488 530Q418 595 309 595Q252 594 219 574Q186 554 186 517Q186 476 214.50 454.50Q243 433 323 400Q434 354 480.50 308.50Q527 263 527 179Z"  horiz-adv-x="582" vert-adv-y="1000"  />

      
      <glyph glyph-name="uni25" unicode="&#x25;" d="M205 407Q145 407 102.50 449.50Q60 492 60 552Q60 613 102.50 656Q145 699 205 699Q266 699 309 656Q352 613 352 552Q352 492 309 449.50Q266 407 205 407M120-16L502 697L588 697L206-16L120-16M205 477Q237 477 259.50 499Q282 521 282 552Q282 584 259 606.50Q236 629 205 629Q174 629 152 606.50Q130 584 130 552Q130 521 152 499Q174 477 205 477M514-16Q454-16 411.50 26.50Q369 69 369 129Q369 190 411.50 233Q454 276 514 276Q575 276 618 233Q661 190 661 129Q661 69 618 26.50Q575-16 514-16M514 54Q546 54 568.50 76Q591 98 591 129Q591 160 568.50 183Q546 206 514 206Q483 206 461 183.50Q439 161 439 129Q439 98 461 76Q483 54 514 54Z"  horiz-adv-x="721" vert-adv-y="1000"  />

      
      <glyph glyph-name="uni26" unicode="&#x26;" d="M269-15Q167-15 103 34Q40 84 40 172Q40 230 76 274.50Q112 319 189 359Q119 448 119 517Q119 601 168.50 648Q218 695 306 695Q391 695 438.50 652Q486 609 486 534Q486 487 447.50 436Q409 385 341 343L421 257L483 191L599 308L599 193L541 131L669 0L533 0Q529 4 507.50 27Q486 50 473 62Q391-15 269-15M289 402Q383 460 383 525Q383 560 363 580Q343 600 306 600Q269 600 249.50 579.50Q230 559 230 525Q230 466 289 402M283 80Q352 80 410 126L242 295Q201 276 176.50 243.50Q152 211 152 171Q152 127 187.50 103.50Q223 80 283 80Z"  horiz-adv-x="709" vert-adv-y="1000"  />

      
      <glyph glyph-name="uni27" unicode="&#x27;" d="M30 402L64 698L193 698L117 402L30 402Z"  horiz-adv-x="223" vert-adv-y="1000"  />

      
      <glyph glyph-name="uni28" unicode="&#x28;" d="M178-124Q166-98 148-54.50Q130-11 100 107.50Q70 226 70 324Q70 422 97 528.50Q124 635 151 692L178 750L295 750Q290 742 283 726.50Q276 711 256.50 664Q237 617 222.50 569Q208 521 196 453.50Q184 386 184 324Q184 262 195.50 193.50Q207 125 223.50 70.50Q240 16 257-29Q274-74 286-99L297-124L178-124Z"  horiz-adv-x="368" vert-adv-y="1000"  />

      
      <glyph glyph-name="uni29" unicode="&#x29;" d="M71-124Q76-115 83.50-98Q91-81 110.50-30Q130 21 145 71.50Q160 122 172 192Q184 262 184 324Q184 422 156 528.50Q128 635 100 692L73 750L180 750Q184 742 191.50 726.50Q199 711 217.50 664Q236 617 250.50 569Q265 521 276.50 453.50Q288 386 288 324Q288 226 261 114Q234 2 207-61L180-124L71-124Z"  horiz-adv-x="358" vert-adv-y="1000"  />

      
      <glyph glyph-name="uni2a" unicode="&#x2a;" d="M175 342L182 465L79 397L40 465L151 520L40 575L79 643L182 575L175 698L252 698L245 574L348 643L387 575L276 520L387 465L348 398L245 466L252 342L175 342Z"  horiz-adv-x="427" vert-adv-y="1000"  />

      
      <glyph glyph-name="uni2b" unicode="&#x2b;" d="M280 100L280 303L72 303L72 406L280 406L280 609L397 609L397 406L605 406L605 303L397 303L397 100L280 100Z"  horiz-adv-x="677" vert-adv-y="1000"  />

      
      <glyph glyph-name="uni2c" unicode="&#x2c;" d="M20-151L110 105L243 105L122-151L20-151Z"  horiz-adv-x="333" vert-adv-y="1000"  />

      
      <glyph glyph-name="uni2d" unicode="&#x2d;" d="M71 244L71 346L443 346L443 244L71 244Z"  horiz-adv-x="514" vert-adv-y="1000"  />

      
      <glyph glyph-name="uni2e" unicode="&#x2e;" d="M160-7Q126-7 103 15.50Q80 38 80 73Q80 106 103 129.50Q126 153 160 153Q193 153 216.50 129.50Q240 106 240 73Q240 39 216.50 16Q193-7 160-7Z"  horiz-adv-x="320" vert-adv-y="1000"  />

      
      <glyph glyph-name="uni2f" unicode="&#x2f;" d="M0-57L338 700L455 700L117-57L0-57Z"  horiz-adv-x="455" vert-adv-y="1000"  />

      
      <glyph glyph-name="uni30" unicode="&#x30;" d="M301-15Q178-17 113 84.50Q48 186 50 340Q48 493 112.50 593Q177 693 301 695Q384 694 442 645Q500 596 526 518Q552 440 550 340Q552 185 488 84Q424-17 301-15M301 88Q438 88 438 340Q438 593 301 593Q259 593 230 569.50Q201 546 187 505.50Q173 465 167.50 425.50Q162 386 162 340Q162 88 301 88Z"  horiz-adv-x="600" vert-adv-y="1000"  />

      
      <glyph glyph-name="uni31" unicode="&#x31;" d="M70 0L70 96L230 96L230 584L70 584L70 679L339 679L339 96L481 96L481 0L70 0Z"  horiz-adv-x="531" vert-adv-y="1000"  />

      
      <glyph glyph-name="uni32" unicode="&#x32;" d="M119 0L120 1L60 1L286 274Q202 282 144.50 342.50Q87 403 87 486Q87 574 152 636.50Q217 699 308 699Q399 699 464 636.50Q529 574 529 486Q529 403 473 344L265 96L526 96L526 0L119 0M229.50 408Q229.50 408 245.25 392Q261 376 308 376Q355 376 386.50 408Q418 440 418 486Q418 532 386.50 564Q355 596 308 596Q261 596 229.50 564Q198 532 198 486Q198 440 229.50 408Z"  horiz-adv-x="599" vert-adv-y="1000"  />

      
      <glyph glyph-name="uni33" unicode="&#x33;" d="M468 50.50Q468 50.50 434 17.75Q400-15 303-15Q206-15 138 50.50Q70 116 70 209L183 209Q183 159 217.50 124.50Q252 90 303 90Q354 90 388.50 124.50Q423 159 423 209Q423 260 388.50 294.50Q354 329 303 329Q278 329 255 320L342 584L97 584L97 679L483 679L393 416L394 416Q458 390 497 334Q536 278 536 209Q536 116 468 50.50Z"  horiz-adv-x="586" vert-adv-y="1000"  />

      
      <glyph glyph-name="uni34" unicode="&#x34;" d="M377 1L377 227L50 227L303 679L420 679L223 321L494 321L494 1L377 1Z"  horiz-adv-x="574" vert-adv-y="1000"  />

      
      <glyph glyph-name="uni35" unicode="&#x35;" d="M448 50.50Q448 50.50 414 17.75Q380-15 283-15Q186-15 118 50.50Q50 116 50 209L163 209Q163 159 197.50 124.50Q232 90 283 90Q334 90 368.50 124.50Q403 159 403 209Q403 260 368.50 294.50Q334 329 283 329Q251 329 226 315L174 336L174 679L509 679L509 584L283 584L283 434Q332 434 374 416Q438 390 477 334Q516 278 516 209Q516 116 448 50.50Z"  horiz-adv-x="566" vert-adv-y="1000"  />

      
      <glyph glyph-name="uni36" unicode="&#x36;" d="M468 51.50Q468 51.50 434 18.75Q400-14 303-14Q206-14 138 51.50Q70 117 70 210Q70 299 134 365L384 679L518 679L326 434Q415 426 475.50 361.50Q536 297 536 210Q536 117 468 51.50M217.50 125.50Q217.50 125.50 234.75 108.25Q252 91 303 91Q354 91 388.50 125.50Q423 160 423 210Q423 261 388.50 295.50Q354 330 303 330Q252 330 217.50 295.50Q183 261 183 210Q183 160 217.50 125.50Z"  horiz-adv-x="606" vert-adv-y="1000"  />

      
      <glyph glyph-name="uni37" unicode="&#x37;" d="M101 0L320 584L70 584L70 679L470 679L220 0L101 0Z"  horiz-adv-x="530" vert-adv-y="1000"  />

      
      <glyph glyph-name="uni38" unicode="&#x38;" d="M451 49.50Q451 49.50 416.50 17.75Q382-14 283-14Q184-14 115 49.50Q46 113 46 202Q46 254 72 299.50Q98 345 143 375Q87 429 87 508Q87 586 144 641.50Q201 697 283 697Q365 697 422 641.50Q479 586 479 508Q479 429 423 375Q468 345 494 299.50Q520 254 520 202Q520 113 451 49.50M216.50 443.50Q216.50 443.50 229.75 430.25Q243 417 283 417Q323 417 349.50 443.50Q376 470 376 508Q376 547 349.50 573.50Q323 600 283 600Q243 600 216.50 573.50Q190 547 190 508Q190 470 216.50 443.50M192.50 115.50Q192.50 115.50 210.75 98.25Q229 81 283 81Q337 81 373.50 115.50Q410 150 410 201Q410 251 373.50 285Q337 319 283 319Q229 319 192.50 285Q156 251 156 201Q156 150 192.50 115.50Z"  horiz-adv-x="566" vert-adv-y="1000"  />

      
      <glyph glyph-name="uni39" unicode="&#x39;" d="M75 0L268 246Q176 252 113 317Q50 382 50 471Q50 564 118 629.50Q186 695 283 695Q380 695 448 629.50Q516 564 516 471Q516 403 478 348L479 348L202 0L75 0M197.50 385.50Q197.50 385.50 214.75 368.25Q232 351 283 351Q334 351 368.50 385.50Q403 420 403 471Q403 521 368.50 555.50Q334 590 283 590Q232 590 197.50 555.50Q163 521 163 471Q163 420 197.50 385.50Z"  horiz-adv-x="566" vert-adv-y="1000"  />

      
      <glyph glyph-name="uni3a" unicode="&#x3a;" d="M223 319Q188 319 165.50 341.50Q143 364 143 399Q143 432 166 455.50Q189 479 223 479Q256 479 279.50 455.50Q303 432 303 399Q303 365 279.50 342Q256 319 223 319M223-7Q188-7 165.50 15.50Q143 38 143 73Q143 106 166 129.50Q189 153 223 153Q256 153 279.50 129.50Q303 106 303 73Q303 39 279.50 16Q256-7 223-7Z"  horiz-adv-x="446" vert-adv-y="1000"  />

      
      <glyph glyph-name="uni3b" unicode="&#x3b;" d="M223 319Q188 319 165.50 341.50Q143 364 143 399Q143 432 166 455.50Q189 479 223 479Q256 479 279.50 455.50Q303 432 303 399Q303 365 279.50 342Q256 319 223 319M54-151L144 105L277 105L156-151L54-151Z"  horiz-adv-x="418" vert-adv-y="1000"  />

      
      <glyph glyph-name="uni3c" unicode="&#x3c;" d="M489 0L50 250L50 315L489 517L489 417L170 284L489 100L489 0Z"  horiz-adv-x="539" vert-adv-y="1000"  />

      
      <glyph glyph-name="uni3d" unicode="&#x3d;" d="M91 393L91 495L540 495L540 393L91 393M91 188L91 290L540 290L540 188L91 188Z"  horiz-adv-x="630" vert-adv-y="1000"  />

      
      <glyph glyph-name="uni3e" unicode="&#x3e;" d="M50 0L50 100L369 284L50 417L50 517L489 315L489 250L50 0Z"  horiz-adv-x="539" vert-adv-y="1000"  />

      
      <glyph glyph-name="uni3f" unicode="&#x3f;" d="M89 221L89 376Q136 376 167.50 408Q199 440 199 486Q199 532 167.50 564Q136 596 89 596L89 699Q180 699 245 636.50Q310 574 310 486Q310 427 279 377.50Q248 328 197 300L197 221L89 221M140-7Q106-7 83 15.50Q60 38 60 73Q60 106 83 129.50Q106 153 140 153Q173 153 196.50 129.50Q220 106 220 73Q220 39 196.50 16Q173-7 140-7Z"  horiz-adv-x="355" vert-adv-y="1000"  />

      
      <glyph glyph-name="uni40" unicode="&#x40;" d="M432-170Q270-170 155-59Q40 52 40 210Q40 367 153 478.50Q266 590 425 590Q590 590 700.50 489.50Q811 389 811 230Q811 129 760.50 77.50Q710 26 640 26Q560 26 543 85Q522 58 486 41.50Q450 25 420 25Q336 25 279.50 81Q223 137 223 218Q223 299 279.50 354.50Q336 410 419 410Q487 410 525 369L525 400L611 400L611 150Q611 104 645 104Q678 104 697.50 142Q717 180 717 219Q717 355 634 426.50Q551 498 425 498Q308 498 224 413Q140 328 140 210Q140 91 225.50 6.50Q311-78 432-78L432-170M419 109Q465 109 495 138Q525 167 525 218Q525 268 495 297.50Q465 327 419 327Q375 327 344 295Q313 263 313 218Q313 173 344 141Q375 109 419 109Z"  horiz-adv-x="851" vert-adv-y="1000"  />

      
      <glyph glyph-name="uni41" unicode="&#x41;" d="M21 0L323 679L430 679L732 0L605 0L540 161L213 161L148 0L21 0M254 263L499 263L377 552L254 263Z"  horiz-adv-x="753" vert-adv-y="1000"  />

      
      <glyph glyph-name="uni42" unicode="&#x42;" d="M476 369Q544 363 585 318Q626 273 626 206Q626 104 562 52Q498 0 386 0L90 0L90 679L368 679Q479 679 534 636.50Q589 594 589 504Q589 448 558 413Q527 378 476 369M354 577L199 577L199 408L348 408Q418 408 450 427Q482 446 482 496Q479 548 449 562.50Q419 577 354 577M378 102Q511 102 511 208Q511 311 378 311L199 311L199 102L378 102Z"  horiz-adv-x="666" vert-adv-y="1000"  />

      
      <glyph glyph-name="uni43" unicode="&#x43;" d="M420-15Q256-17 149.50 87Q43 191 45 340Q43 489 149.50 593Q256 697 420 695Q552 695 640 635L640 520Q636 527 608.50 543.50Q581 560 527.50 576.50Q474 593 420 593Q299 593 228.50 521.50Q158 450 158 340Q158 230 228.50 159Q299 88 420 88Q488 88 552 107.50Q616 127 659 163L659 46Q658 46 650.50 41Q643 36 636.50 32.50Q630 29 617 23Q604 17 591 12Q578 7 558.50 2Q539-3 519.50-6.50Q500-10 474-12.50Q448-15 420-15Z"  horiz-adv-x="704" vert-adv-y="1000"  />

      
      <glyph glyph-name="uni44" unicode="&#x44;" d="M336 679Q508 679 606.50 585Q705 491 705 340Q705 190 604 95Q503 0 336 0L90 0L90 679L336 679M328 103Q449 103 518.50 162Q588 221 592 340Q592 452 524.50 514.50Q457 577 327 577L199 577L199 103L328 103Z"  horiz-adv-x="760" vert-adv-y="1000"  />

      
      <glyph glyph-name="uni45" unicode="&#x45;" d="M199 102L592 102L592 0L90 0L90 679L586 679L586 577L199 577L199 413L507 413L507 311L199 311L199 102Z"  horiz-adv-x="642" vert-adv-y="1000"  />

      
      <glyph glyph-name="uni46" unicode="&#x46;" d="M586 577L199 577L199 413L507 413L507 311L199 311L199 0L90 0L90 679L586 679L586 577Z"  horiz-adv-x="624" vert-adv-y="1000"  />

      
      <glyph glyph-name="uni47" unicode="&#x47;" d="M407-15Q252-15 150 88.50Q48 192 50 340Q48 489 154.50 593Q261 697 425 695Q512 695 572 673Q636 652 664 634L664 518Q637 541 576 566Q514 593 425 593Q304 593 233.50 521.50Q163 450 163 340Q163 233 232 160Q301 87 407 87Q510 87 591 148L591 295L388 295L388 397L700 397L700 0L591 0L591 35Q511-15 407-15Z"  horiz-adv-x="776" vert-adv-y="1000"  />

      
      <glyph glyph-name="uni48" unicode="&#x48;" d="M552 679L661 679L661 0L552 0L552 311L199 311L199 0L90 0L90 679L199 679L199 413L552 413L552 679Z"  horiz-adv-x="751" vert-adv-y="1000"  />

      
      <glyph glyph-name="uni49" unicode="&#x49;" d="M90 0L90 679L199 679L199 0L90 0Z"  horiz-adv-x="289" vert-adv-y="1000"  />

      
      <glyph glyph-name="uni4a" unicode="&#x4a;" d="M229-15Q187-15 140-2.50Q93 10 67 22.50Q41 35 41 38L41 142Q53 135 75 124.50Q97 114 139.50 101Q182 88 214 88Q296 88 332 120.50Q368 153 368 227L368 679L477 679L477 229Q477 113 410 49Q343-15 229-15Z"  horiz-adv-x="542" vert-adv-y="1000"  />

      
      <glyph glyph-name="uni4b" unicode="&#x4b;" d="M90 0L90 679L198 679L198 370L526 679L668 679L368 404L668 0L532 0L289 329L198 243L198 0L90 0Z"  horiz-adv-x="686" vert-adv-y="1000"  />

      
      <glyph glyph-name="uni4c" unicode="&#x4c;" d="M90 0L90 679L198 679L198 102L610 102L610 0L90 0Z"  horiz-adv-x="648" vert-adv-y="1000"  />

      
      <glyph glyph-name="uni4d" unicode="&#x4d;" d="M90 0L90 679L217 679L413 377L413 376L610 679L737 679L737 0L629 0L629 515L463 263L364 263L198 515L198 0L90 0Z"  horiz-adv-x="827" vert-adv-y="1000"  />

      
      <glyph glyph-name="uni4e" unicode="&#x4e;" d="M90 0L90 679L215 679L573 165L573 679L681 679L681 0L560 0L198 523L198 0L90 0Z"  horiz-adv-x="771" vert-adv-y="1000"  />

      
      <glyph glyph-name="uni4f" unicode="&#x4f;" d="M401-15Q248-17 145.50 87.50Q43 192 45 340Q43 488 145.50 592.50Q248 697 401 695Q554 697 657 592.50Q760 488 758 340Q760 192 657 87.50Q554-17 401-15M401 88Q511 88 578 159.50Q645 231 645 340Q645 449 578 521Q511 593 401 593Q292 593 224.50 521Q157 449 157 340Q157 231 224.50 159.50Q292 88 401 88Z"  horiz-adv-x="803" vert-adv-y="1000"  />

      
      <glyph glyph-name="uni50" unicode="&#x50;" d="M409 679Q512 679 580.50 617Q649 555 649 456Q649 357 580 295Q511 233 406 233L199 233L199 0L90 0L90 679L409 679M401 333Q458 333 497.50 366.50Q537 400 537 454Q537 508 497.50 542.50Q458 577 401 577L199 577L199 333L401 333Z"  horiz-adv-x="698" vert-adv-y="1000"  />

      
      <glyph glyph-name="uni51" unicode="&#x51;" d="M783 87L783-15L412-15L401-15Q248-17 145.50 87.50Q43 192 45 340Q43 488 145.50 592.50Q248 697 401 695Q554 697 657 592.50Q760 488 758 340Q761 193 657 87L783 87M224.50 521Q224.50 521 190.75 485Q157 449 157 340Q157 231 224.50 159.50Q292 88 401 88Q511 88 578 159.50Q645 231 645 340Q645 449 578 521Q511 593 401 593Q292 593 224.50 521Z"  horiz-adv-x="803" vert-adv-y="1000"  />

      
      <glyph glyph-name="uni52" unicode="&#x52;" d="M466 272L668 0L532 0L338 263L199 263L199 0L90 0L90 679L389 679Q494 679 561.50 624Q629 569 629 471Q629 394 585 342.50Q541 291 466 272M199 363L381 363Q440 363 478.50 390Q517 417 517 469Q517 522 478.50 549.50Q440 577 381 577L199 577L199 363Z"  horiz-adv-x="689" vert-adv-y="1000"  />

      
      <glyph glyph-name="uni53" unicode="&#x53;" d="M272-16Q125-16 45 54L45 166Q145 87 272 87Q415 87 415 180Q415 216 383.50 239.50Q352 263 274 295Q165 340 119.50 386.50Q74 433 74 517Q74 597 143 648Q212 699 319 699Q409 700 488 647L488 530Q418 595 309 595Q252 594 219 574Q186 554 186 517Q186 476 214.50 454.50Q243 433 323 400Q434 354 480.50 308.50Q527 263 527 179Q527 94 456.50 39Q386-16 272-16Z"  horiz-adv-x="582" vert-adv-y="1000"  />

      
      <glyph glyph-name="uni54" unicode="&#x54;" d="M278 0L278 577L40 577L40 679L624 679L624 577L386 577L386 0L278 0Z"  horiz-adv-x="664" vert-adv-y="1000"  />

      
      <glyph glyph-name="uni55" unicode="&#x55;" d="M556 52.50Q556 52.50 518.50 18.75Q481-15 353-15Q225-15 150 52.50Q75 120 75 259L75 679L184 679L184 261Q184 175 231.50 132.50Q279 90 353 90Q437 90 479.50 131Q522 172 522 261L522 679L631 679L631 259Q631 120 556 52.50Z"  horiz-adv-x="706" vert-adv-y="1000"  />

      
      <glyph glyph-name="uni56" unicode="&#x56;" d="M290 0L31 679L155 679L348 147L547 679L671 679L412 0L290 0Z"  horiz-adv-x="702" vert-adv-y="1000"  />

      
      <glyph glyph-name="uni57" unicode="&#x57;" d="M242 0L31 679L155 679L306 137L456 679L578 679L729 137L879 679L1003 679L792 0L666 0L517 524L369 0L242 0Z"  horiz-adv-x="1034" vert-adv-y="1000"  />

      
      <glyph glyph-name="uni58" unicode="&#x58;" d="M31 0L288 358L46 679L178 679L352 437L530 679L662 679L417 357L680 0L548 0L352 269L163 0L31 0Z"  horiz-adv-x="711" vert-adv-y="1000"  />

      
      <glyph glyph-name="uni59" unicode="&#x59;" d="M525 679L656 679L393 291L393 0L283 0L283 291L20 679L150 679L338 390L525 679Z"  horiz-adv-x="676" vert-adv-y="1000"  />

      
      <glyph glyph-name="uni5a" unicode="&#x5a;" d="M75 0L75 102L478 577L94 577L94 679L616 679L616 577L216 102L629 102L629 0L75 0Z"  horiz-adv-x="684" vert-adv-y="1000"  />

      
      <glyph glyph-name="uni5b" unicode="&#x5b;" d="M70-125L70 749L305 749L305 647L187 647L187-24L305-24L305-125L70-125Z"  horiz-adv-x="375" vert-adv-y="1000"  />

      
      <glyph glyph-name="uni5c" unicode="&#x5c;" d="M338-57L0 700L117 700L455-57L338-57Z"  horiz-adv-x="455" vert-adv-y="1000"  />

      
      <glyph glyph-name="uni5d" unicode="&#x5d;" d="M70-125L70-24L188-24L188 647L70 647L70 749L305 749L305-125L70-125Z"  horiz-adv-x="375" vert-adv-y="1000"  />

      
      <glyph glyph-name="uni5e" unicode="&#x5e;" d="M50 320L272 699L337 699L567 320L467 320L305 589L150 320L50 320Z"  horiz-adv-x="617" vert-adv-y="1000"  />

      
      <glyph glyph-name="uni5f" unicode="&#x5f;" d="M71-62L71 0L674 0L674-62L71-62Z"  horiz-adv-x="745" vert-adv-y="1000"  />

      
      <glyph glyph-name="uni60" unicode="&#x60;" d="M142 586L20 757L153 757L243 586L142 586Z"  horiz-adv-x="263" vert-adv-y="1000"  />

      
      <glyph glyph-name="uni61" unicode="&#x61;" d="M310-15Q193-15 116.50 64Q40 143 40 258Q40 373 116.50 452.50Q193 532 310 532Q419 532 484 467L484 517L591 517L591 0L482 0L483 53Q417-15 310-15M318 81Q392 81 441 129Q490 177 490 259Q490 341 441 388.50Q392 436 318 436Q246 436 197 384.50Q148 333 148 259Q148 185 197 133Q246 81 318 81Z"  horiz-adv-x="672" vert-adv-y="1000"  />

      
      <glyph glyph-name="uni62" unicode="&#x62;" d="M362-15Q255-15 189 53L190 0L81 0L81 679L188 697L188 467Q253 532 362 532Q479 532 555.50 452.50Q632 373 632 258Q632 143 555.50 64Q479-15 362-15M354 81Q426 81 476.50 133Q527 185 527 259Q527 333 477 384.50Q427 436 354 436Q280 436 231 388.50Q182 341 182 259Q182 177 231 129Q280 81 354 81Z"  horiz-adv-x="672" vert-adv-y="1000"  />

      
      <glyph glyph-name="uni63" unicode="&#x63;" d="M333-15Q194-15 117 62.50Q40 140 40 259Q40 374 119.50 453Q199 532 323 532Q442 532 508 470L508 359Q506 362 501 367.50Q496 373 478.50 386.50Q461 400 441.50 410Q422 420 390 428.50Q358 437 323 437Q247 437 196 385Q145 333 145 259Q145 178 196 129Q247 80 333 80Q387 80 433 93.50Q479 107 498 120L518 134L518 34Q486 9 433.50-3Q381-15 333-15Z"  horiz-adv-x="553" vert-adv-y="1000"  />

      
      <glyph glyph-name="uni64" unicode="&#x64;" d="M310-15Q193-15 116.50 64Q40 143 40 258Q40 373 116.50 452.50Q193 532 310 532Q419 532 484 467L484 679L592 697L592 0L482 0L483 53Q417-15 310-15M318 81Q392 81 441 129Q490 177 490 259Q490 341 441 388.50Q392 436 318 436Q245 436 195 384.50Q145 333 145 259Q145 185 195.50 133Q246 81 318 81Z"  horiz-adv-x="672" vert-adv-y="1000"  />

      
      <glyph glyph-name="uni65" unicode="&#x65;" d="M326-15Q194-15 117 64Q40 143 40 259Q40 376 119.50 454Q199 532 319 532Q426 532 491 457.50Q556 383 556 283L556 233L143 233Q153 167 199.50 124Q246 81 328 81Q348 81 368 83Q388 85 405 88Q422 91 437.50 95Q453 99 465.50 103.50Q478 108 489 112.50Q500 117 508 121Q516 125 521.50 128Q527 131 530 133L533 135L533 38Q531 36 526 32.50Q521 29 503.50 19.50Q486 10 464.50 3Q443-4 405.50-9.50Q368-15 326-15M148 317L448 317Q446 336 439.50 354.50Q433 373 418 395Q403 417 374 430.50Q345 444 305 444Q231 444 193 402.50Q155 361 148 317Z"  horiz-adv-x="596" vert-adv-y="1000"  />

      
      <glyph glyph-name="uni66" unicode="&#x66;" d="M140 0L140 370L30 370L30 458L140 458Q140 579 200.50 648Q261 717 360 717Q409 717 445.50 703.50Q482 690 494 676L506 663L506 567Q500 573 489.50 582Q479 591 445 606Q411 621 375 621Q312 621 280 583Q248 545 248 458L481 458L481 370L248 370L248 0L140 0Z"  horiz-adv-x="521" vert-adv-y="1000"  />

      
      <glyph glyph-name="uni67" unicode="&#x67;" d="M295-225Q228-225 176-211.50Q124-198 106-185L88-172L88-75Q97-81 113-90Q129-99 182-114Q235-129 291-129Q482-129 482 40L482 52Q417-15 310-15Q193-15 116.50 64Q40 143 40 258Q40 373 116.50 452.50Q193 532 310 532Q419 532 484 467L484 517L592 517L590 54Q590-69 518-147Q446-225 295-225M318 81Q392 81 441 129Q490 177 490 259Q490 341 441 388.50Q392 436 318 436Q246 436 197 384.50Q148 333 148 259Q148 185 197 133Q246 81 318 81Z"  horiz-adv-x="645" vert-adv-y="1000"  />

      
      <glyph glyph-name="uni68" unicode="&#x68;" d="M349 533Q440 533 498.50 477Q557 421 557 318L557 0L449 0L449 307Q449 369 418 403Q387 437 333 437Q273 437 230.50 398.50Q188 360 188 291L188 0L80 0L80 679L188 697L188 453Q189 456 192.50 461.50Q196 467 208.50 481Q221 495 237.50 505.50Q254 516 284 524.50Q314 533 349 533Z"  horiz-adv-x="627" vert-adv-y="1000"  />

      
      <glyph glyph-name="uni69" unicode="&#x69;" d="M141 591Q116 591 98 608.50Q80 626 80 652Q80 678 97.50 696Q115 714 141 714Q167 714 185 696Q203 678 203 652Q203 626 185 608.50Q167 591 141 591M92 0L92 518L200 518L200 0L92 0Z"  horiz-adv-x="283" vert-adv-y="1000"  />

      
      <glyph glyph-name="uni6a" unicode="&#x6a;" d="M135 591Q110 591 92 608.50Q74 626 74 652Q74 678 91.50 696Q109 714 135 714Q161 714 179 696Q197 678 197 652Q197 626 179 608.50Q161 591 135 591M37-224Q-12-224-48.50-208Q-85-192-97-176L-109-161L-109-49Q-103-58-92.50-71Q-82-84-48-106Q-14-128 22-128Q58-128 73.50-102.50Q89-77 89-40L89 518L197 518L197-31Q197-57 193.50-81Q190-105 179-132Q168-159 151-178.50Q134-198 104.50-211Q75-224 37-224Z"  horiz-adv-x="268" vert-adv-y="1000"  />

      
      <glyph glyph-name="uni6b" unicode="&#x6b;" d="M447 0L236 258L188 217L188 0L80 0L80 679L188 697L188 335L406 517L546 517L316 324L586 0L447 0Z"  horiz-adv-x="576" vert-adv-y="1000"  />

      
      <glyph glyph-name="uni6c" unicode="&#x6c;" d="M80 0L80 679L188 697L188 0L80 0Z"  horiz-adv-x="268" vert-adv-y="1000"  />

      
      <glyph glyph-name="uni6d" unicode="&#x6d;" d="M678 533Q767 533 819 477.50Q871 422 871 318L871 0L763 0L763 307Q763 437 662 437Q609 437 570.50 398.50Q532 360 532 291L532 0L424 0L424 307Q424 437 323 437Q275 437 237.50 404Q200 371 194 311L194 0L86 0L86 517L194 517L194 455Q200 468 211 482.50Q222 497 257 515Q292 533 339 533Q452 533 502 448Q547 533 678 533Z"  horiz-adv-x="941" vert-adv-y="1000"  />

      
      <glyph glyph-name="uni6e" unicode="&#x6e;" d="M355 533Q446 533 504.50 477Q563 421 563 318L563 0L455 0L455 307Q455 369 424 403Q393 437 339 437Q279 437 236.50 398.50Q194 360 194 291L194 0L86 0L86 517L194 517L194 453Q195 456 198.50 461.50Q202 467 214.50 481Q227 495 243.50 505.50Q260 516 290 524.50Q320 533 355 533Z"  horiz-adv-x="633" vert-adv-y="1000"  />

      
      <glyph glyph-name="uni6f" unicode="&#x6f;" d="M523.50 65Q523.50 65 482.25 25Q441-15 323-15Q205-15 122.50 65Q40 145 40 258Q40 371 122.50 451.50Q205 532 323 532Q441 532 523.50 451.50Q606 371 606 258Q606 145 523.50 65M195.50 133.50Q195.50 133.50 221.25 107.75Q247 82 323 82Q399 82 450.50 133.50Q502 185 502 258Q502 332 450.50 383.50Q399 435 323 435Q247 435 195.50 383.50Q144 332 144 258Q144 185 195.50 133.50Z"  horiz-adv-x="646" vert-adv-y="1000"  />

      
      <glyph glyph-name="uni70" unicode="&#x70;" d="M80-212L80 517L188 517L188 467Q253 532 362 532Q479 532 555.50 452.50Q632 373 632 258Q632 143 555.50 64Q479-15 362-15Q252-15 188 55L188-212L80-212M364 81Q436 81 481.50 132Q527 183 527 258Q527 333 481 384.50Q435 436 364 436Q288 436 235 388Q182 340 182 258Q182 177 235 129Q288 81 364 81Z"  horiz-adv-x="672" vert-adv-y="1000"  />

      
      <glyph glyph-name="uni71" unicode="&#x71;" d="M484-212L484 55Q420-15 310-15Q193-15 116.50 64Q40 143 40 258Q40 373 116.50 452.50Q193 532 310 532Q419 532 484 467L484 517L592 517L592-212L484-212M308 81Q384 81 437 129Q490 177 490 258Q490 340 437 388Q384 436 308 436Q237 436 191 384.50Q145 333 145 258Q145 183 190.50 132Q236 81 308 81Z"  horiz-adv-x="669" vert-adv-y="1000"  />

      
      <glyph glyph-name="uni72" unicode="&#x72;" d="M80 0L80 518L188 518L188 418Q207 468 264 500.50Q321 533 400 533L400 444Q303 444 246.50 393.50Q190 343 188 259L188 0L80 0Z"  horiz-adv-x="410" vert-adv-y="1000"  />

      
      <glyph glyph-name="uni73" unicode="&#x73;" d="M193-15Q154-15 115.50-3Q77 9 58 22L40 34L40 140Q48 133 61.50 123.50Q75 114 115 97.50Q155 81 192 81Q296 81 296 136Q296 162 274 182Q252 202 200 231Q176 244 166 250Q156 256 136.50 269Q117 282 108.50 292Q100 302 89 317Q78 332 74 349.50Q70 367 70 388Q70 452 119.50 492Q169 532 241 532Q318 532 375 498L375 392Q329 436 254 436Q172 436 172 390Q172 385 173 380.50Q174 376 175.50 372.50Q177 369 180.50 364.50Q184 360 187.50 357Q191 354 197.50 349Q204 344 209 340.50Q214 337 224.50 331Q235 325 242.50 320.50Q250 316 264 308Q278 300 289 294Q346 261 371.50 229Q397 197 397 142Q397 76 346 30.50Q295-15 193-15Z"  horiz-adv-x="437" vert-adv-y="1000"  />

      
      <glyph glyph-name="uni74" unicode="&#x74;" d="M204 0L204 443L5 443L312 696L312 531L489 531L489 443L312 443L312 0L204 0Z"  horiz-adv-x="502" vert-adv-y="1000"  />

      
      <glyph glyph-name="uni75" unicode="&#x75;" d="M540 209Q540-16 305-16Q70-16 70 209L70 517L178 517L178 206Q178 201 178.50 192.50Q179 184 185 162Q191 140 202.50 123Q214 106 241 92.50Q268 79 305 79Q342 79 369 92Q396 105 407.50 124Q419 143 425.50 161.50Q432 180 432 193L432 206L432 517L540 517L540 209Z"  horiz-adv-x="610" vert-adv-y="1000"  />

      
      <glyph glyph-name="uni76" unicode="&#x76;" d="M275-41L5 517L118 517L276 179L432 517L545 517L275-41Z"  horiz-adv-x="550" vert-adv-y="1000"  />

      
      <glyph glyph-name="uni77" unicode="&#x77;" d="M230-41L30 517L143 517L246 219L372 538L509 218L604 517L717 517L517-41L371 304L230-41Z"  horiz-adv-x="747" vert-adv-y="1000"  />

      
      <glyph glyph-name="uni78" unicode="&#x78;" d="M25 0L247 278L45 517L175 517L316 345L460 517L578 517L377 270L598 0L468 0L310 202L150 0L25 0Z"  horiz-adv-x="623" vert-adv-y="1000"  />

      
      <glyph glyph-name="uni79" unicode="&#x79;" d="M102-208L237 60L20 517L133 517L293 174L453 517L566 517L217-208L102-208Z"  horiz-adv-x="586" vert-adv-y="1000"  />

      
      <glyph glyph-name="uni7a" unicode="&#x7a;" d="M50 0L50 74L377 424L70 424L70 518L516 518L516 434L198 94L526 94L526 0L50 0Z"  horiz-adv-x="576" vert-adv-y="1000"  />

      
      <glyph glyph-name="uni7b" unicode="&#x7b;" d="M296-125Q202-124 162-86.50Q122-49 122 27Q122 199 118 224Q111 260 86 265Q79 266 70 266L70 359Q107 359 114.50 391.50Q122 424 122 548Q122 580 122 598Q122 674 162 711.50Q202 749 296 750L296 658Q251 658 235.50 636.50Q220 615 220 558Q220 541 220.50 504.50Q221 468 220.50 454Q220 440 218.50 413.50Q217 387 213 376Q209 365 201.50 349.50Q194 334 182 326Q170 318 153 313Q168 309 179 300.50Q190 292 197.50 283.50Q205 275 209.50 259Q214 243 216.50 231.50Q219 220 220 196.50Q221 173 221 158.50Q221 144 220.50 114Q220 84 220 67Q220 10 235.50-11.50Q251-33 296-33L296-125Z"  horiz-adv-x="366" vert-adv-y="1000"  />

      
      <glyph glyph-name="uni7c" unicode="&#x7c;" d="M74-50L74 739L161 739L161-50L74-50Z"  horiz-adv-x="236" vert-adv-y="1000"  />

      
      <glyph glyph-name="uni7d" unicode="&#x7d;" d="M70-125L70-33Q115-33 130.50-11.50Q146 10 146 67Q146 84 145.50 114Q145 144 145 158.50Q145 173 146 196.50Q147 220 149.50 231.50Q152 243 156.50 259Q161 275 168.50 283.50Q176 292 187 300.50Q198 309 213 313Q196 318 184 326Q172 334 164.50 349.50Q157 365 153 376Q149 387 147.50 413.50Q146 440 145.50 454Q145 468 145.50 504.50Q146 541 146 558Q146 615 130.50 636.50Q115 658 70 658L70 750Q164 749 204 711.50Q244 674 244 598Q244 430 248 404Q255 365 281 360Q288 359 296 359L296 266Q258 266 251 236Q244 206 244 80Q244 46 244 27Q244-49 204-86.50Q164-124 70-125Z"  horiz-adv-x="366" vert-adv-y="1000"  />

      
      <glyph glyph-name="uni7e" unicode="&#x7e;" d="M373 204Q343 204 272 231Q265 234 249 241Q233 248 221.50 252Q210 256 201 256Q196 256 191.50 255Q187 254 184 252.50Q181 251 178.50 249Q176 247 173.50 243.50Q171 240 170 238Q169 236 167.50 231.50Q166 227 165.50 225Q165 223 163.50 217.50Q162 212 162 211L50 241Q61 288 91.50 318Q122 348 174 348Q216 348 275 321Q330 296 346 296Q351 296 355.50 297Q360 298 363 299.50Q366 301 368.50 303Q371 305 373.50 308.50Q376 312 377 314Q378 316 379.50 320.50Q381 325 381.50 327Q382 329 383.50 334.50Q385 340 385 341L497 311Q471 204 373 204Z"  horiz-adv-x="547" vert-adv-y="1000"  />

      
      <glyph glyph-name="unia1" unicode="&#xa1;" d="M172 371Q138 371 115 394.50Q92 418 92 451Q92 486 115 508.50Q138 531 172 531Q205 531 228.50 508Q252 485 252 451Q252 418 228.50 394.50Q205 371 172 371M114-175L114 263L231 263L231-175L114-175Z"  horiz-adv-x="344" vert-adv-y="1000"  />

      
      <glyph glyph-name="unia2" unicode="&#xa2;" d="M411 441Q323 441 257 396Q191 351 191 262Q191 216 210.50 180.50Q230 145 263 125.50Q296 106 333.50 96.50Q371 87 411 87L411-16Q378-16 340-11L340-125L234-125L234 20Q82 89 82 262Q82 434 234 505L234 671L339 671L339 536Q375 542 411 542L411 441Z"  horiz-adv-x="500" vert-adv-y="1000"  />

      
      <glyph glyph-name="unia3" unicode="&#xa3;" d="M139 0L139 310L34 310L34 413L139 413L139 493Q139 580 204.50 647Q270 714 363 714Q449 714 511.50 653.50Q574 593 574 508L466 508Q466 547 437.50 574.50Q409 602 368 602Q327 602 298.50 574.50Q270 547 270 508L271 508L271 413L459 413L459 310L270 310L270 103L585 103L584 0L139 0Z"  horiz-adv-x="642" vert-adv-y="1000"  />

      
      <glyph glyph-name="unia4" unicode="&#xa4;" d="M163 91L90 164L133 207Q101 258 101 316Q101 375 133 425L90 468L163 541L208 496Q256 524 315 524Q374 524 422 496L467 541L540 468L497 425Q529 375 529 316Q529 258 497 207L540 164L467 91L422 136Q371 109 315 109Q259 109 208 136L163 91M235.50 239Q235.50 239 251.75 223Q268 207 315 207Q362 207 394.50 239Q427 271 427 316Q427 362 394.50 394Q362 426 315 426Q268 426 235.50 394Q203 362 203 316Q203 271 235.50 239Z"  horiz-adv-x="630" vert-adv-y="1000"  />

      
      <glyph glyph-name="unia5" unicode="&#xa5;" d="M656 679L428 343L531 343L531 241L393 241L393 192L531 192L531 90L393 90L393 0L283 0L283 90L123 90L123 192L283 192L283 241L123 241L123 343L248 343L20 679L150 679L338 390L525 679L656 679Z"  horiz-adv-x="653" vert-adv-y="1000"  />

      
      <glyph glyph-name="unia6" unicode="&#xa6;" d="M74 383L74 739L161 739L161 383L74 383M74-125L74 231L161 231L161-125L74-125Z"  horiz-adv-x="235" vert-adv-y="1000"  />

      
      <glyph glyph-name="unia7" unicode="&#xa7;" d="M193-93Q154-93 115.50-80.50Q77-68 58-56L40-44L40 62Q48 55 61.50 45.50Q75 36 115 19.50Q155 3 192 3Q296 3 296 58Q296 69 291 79.50Q286 90 274 101Q262 112 254 118.50Q246 125 228 137Q210 149 205 153Q203 154 190 163.50Q177 173 174 175.50Q171 178 159 187.50Q147 197 143 201Q139 205 129.50 214.50Q120 224 116 230.50Q112 237 105.50 247Q99 257 96.50 265.50Q94 274 92 285Q90 296 90 307Q90 358 126 392.50Q162 427 225 434Q182 466 161 492.50Q140 519 140 552Q140 617 188.50 658Q237 699 311 699Q339 699 367.50 690.50Q396 682 410 674L425 665L425 579Q366 613 314 613Q282 613 264 599.50Q246 586 246 562Q246 552 251.50 542Q257 532 269 521.50Q281 511 290 504Q299 497 317.50 484.50Q336 472 343 467Q370 447 379.50 439.50Q389 432 409.50 411Q430 390 438.50 367Q447 344 447 315Q447 268 409.50 229.50Q372 191 325 192Q397 145 397 70Q397-2 346.50-47.50Q296-93 193-93M346 303Q346 331 322 349.50Q298 368 264 368Q232 368 214 354.50Q196 341 196 317Q196 279 233.50 261Q271 243 308.50 255Q346 267 346 303Z"  horiz-adv-x="487" vert-adv-y="1000"  />

      
      <glyph glyph-name="unia8" unicode="&#xa8;" d="M76 598Q53 598 36.50 614Q20 630 20 653Q20 676 36.50 692.50Q53 709 76 709Q99 709 115 692.50Q131 676 131 653Q131 630 114.50 614Q98 598 76 598M268 598Q245 598 228.50 614Q212 630 212 653Q212 676 228.50 692.50Q245 709 268 709Q291 709 307 692.50Q323 676 323 653Q323 630 306.50 614Q290 598 268 598Z"  horiz-adv-x="343" vert-adv-y="1000"  />

      
      <glyph glyph-name="unia9" unicode="&#xa9;" d="M676.50 37Q676.50 37 624.25-15Q572-67 424-67Q276-67 172 37Q68 141 68 289Q68 437 172 541.50Q276 646 424 646Q572 646 676.50 541.50Q781 437 781 289Q781 141 676.50 37M220 85Q220 85 262 43Q304 1 424 1Q544 1 628.50 85Q713 169 713 289Q713 409 628.50 493.50Q544 578 424 578Q304 578 220 493.50Q136 409 136 289Q136 169 220 85M444 73Q334 73 273.50 134Q213 195 213 289Q213 381 275.50 443Q338 505 436 505Q530 505 582 456L582 372Q580 375 576 379Q572 383 558.50 393.50Q545 404 529.50 412.50Q514 421 488.50 427.50Q463 434 436 434Q376 434 333.50 391Q291 348 291 289Q291 226 333.50 185Q376 144 444 144Q486 144 522.50 155Q559 166 574 176L590 187L590 112Q540 73 444 73Z"  horiz-adv-x="849" vert-adv-y="1000"  />

      
      <glyph glyph-name="uniaa" unicode="&#xaa;" d="M188 246Q128 246 89 286.50Q50 327 50 386Q50 445 89 486Q128 527 188 527Q213 527 233.50 517.50Q254 508 261 494L261 519L337 519L336 254L260 254L261 281Q254 265 234 255.50Q214 246 188 246M192 318Q221 318 240 336.50Q259 355 259 387Q259 418 240 436.50Q221 455 192 455Q164 455 145.50 435.50Q127 416 127 387Q127 358 145.50 338Q164 318 192 318Z"  horiz-adv-x="387" vert-adv-y="1000"  />

      
      <glyph glyph-name="uniab" unicode="&#xab;" d="M166 60L36 264L166 458L284 458L154 264L284 60L166 60M356 60L226 264L356 458L474 458L344 264L474 60L356 60Z"  horiz-adv-x="504" vert-adv-y="1000"  />

      
      <glyph glyph-name="uniac" unicode="&#xac;" d="M375 99L375 245L50 245L50 347L492 347L492 99L375 99Z"  horiz-adv-x="542" vert-adv-y="1000"  />

      
      <glyph glyph-name="uniad" unicode="&#xad;" d="M71 244L71 346L443 346L443 244L71 244Z"  horiz-adv-x="600" vert-adv-y="1000"  />

      
      <glyph glyph-name="uniae" unicode="&#xae;" d="M676.50 37Q676.50 37 624.25-15Q572-67 424-67Q276-67 172 37Q68 141 68 289Q68 437 172 541.50Q276 646 424 646Q572 646 676.50 541.50Q781 437 781 289Q781 141 676.50 37M220 85Q220 85 262 43Q304 1 424 1Q544 1 628.50 85Q713 169 713 289Q713 409 628.50 493.50Q544 578 424 578Q304 578 220 493.50Q136 409 136 289Q136 169 220 85M251 86L251 489L441 489Q527 489 564 454.50Q601 420 601 356Q601 276 522 240L616 86L532 86L454 223L328 223L328 86L251 86M328 289L439 289Q521 289 521 356Q521 393 500.50 407Q480 421 439 421L328 421L328 289Z"  horiz-adv-x="849" vert-adv-y="1000"  />

      
      <glyph glyph-name="uniaf" unicode="&#xaf;" d="M20 601L20 691L297 691L297 601L20 601Z"  horiz-adv-x="317" vert-adv-y="1000"  />

      
      <glyph glyph-name="unib0" unicode="&#xb0;" d="M159 457Q105 457 66.50 495.50Q28 534 28 588Q28 643 66.50 682Q105 721 159 721Q214 721 253 682Q292 643 292 588Q292 534 253 495.50Q214 457 159 457M159 520Q188 520 208.50 540Q229 560 229 588Q229 616 208.50 637Q188 658 159 658Q131 658 111 637.50Q91 617 91 588Q91 560 111 540Q131 520 159 520Z"  horiz-adv-x="318" vert-adv-y="1000"  />

      
      <glyph glyph-name="unib1" unicode="&#xb1;" d="M212 199L212 303L50 303L50 406L212 406L212 517L329 517L329 406L492 406L492 303L329 303L329 199L212 199M50 0L50 102L492 102L492 0L50 0Z"  horiz-adv-x="542" vert-adv-y="1000"  />

      
      <glyph glyph-name="unib2" unicode="&#xb2;" d="M40 366L144 492Q108 500 84.50 529Q61 558 61 594Q61 637 93 668Q125 699 170 699Q215 699 247 668Q279 637 279 594Q279 555 254 527L172 432L277 432L277 366L40 366M170 555Q186 555 197.50 566.50Q209 578 209 594Q209 610 197.50 621.50Q186 633 170 633Q153 633 142 621.50Q131 610 131 594Q131 577 142 566Q153 555 170 555Z"  horiz-adv-x="319" vert-adv-y="1000"  />

      
      <glyph glyph-name="unib3" unicode="&#xb3;" d="M226 389Q226 389 210 373.50Q194 358 149 358Q104 358 72 389Q40 420 40 464L110 464Q110 447 121 435.50Q132 424 149 424Q166 424 177 435Q188 446 188 463Q188 479 176.50 490.50Q165 502 149 502L122 502L168 614L54 614L54 680L256 680L200 546Q258 527 258 463Q258 420 226 389Z"  horiz-adv-x="298" vert-adv-y="1000"  />

      
      <glyph glyph-name="unib4" unicode="&#xb4;" d="M20 586L110 757L243 757L121 586L20 586Z"  horiz-adv-x="263" vert-adv-y="1000"  />

      
      <glyph glyph-name="unib5" unicode="&#xb5;" d="M60-216L60 517L168 517L168 183Q169 166 174.50 150.50Q180 135 193 117.50Q206 100 232 89.50Q258 79 295 79Q334 79 361 90.50Q388 102 400 121.50Q412 141 417 156.50Q422 172 422 189L422 517L530 517L530 206Q530 146 542 124Q567 79 657 79L657-16Q623-16 601-14.50Q579-13 549-6.50Q519 0 496 16Q473 32 457 57Q405-16 295-16Q218-16 168 15L168-216L60-216Z"  horiz-adv-x="677" vert-adv-y="1000"  />

      
      <glyph glyph-name="unib6" unicode="&#xb6;" d="M271 0L271 269Q165 269 105 322.50Q45 376 45 466Q45 567 106 623Q167 679 271 679L571 679L571 0L463 0L463 577L379 577L379 0L271 0Z"  horiz-adv-x="661" vert-adv-y="1000"  />

      
      <glyph glyph-name="unib7" unicode="&#xb7;" d="M170 266Q136 266 113 289Q90 312 90 346Q90 379 113 402.50Q136 426 170 426Q203 426 226.50 402.50Q250 379 250 346Q250 312 226.50 289Q203 266 170 266Z"  horiz-adv-x="340" vert-adv-y="1000"  />

      
      <glyph glyph-name="unib8" unicode="&#xb8;" d="M20-216L20-158Q42-158 61-149Q80-140 80-122Q80-107 66-97.50Q52-88 38-86L23-84L42-14L113-14L96-70Q103-71 114-74.50Q125-78 143-94Q161-110 161-133Q161-163 138-182.50Q115-202 85-209Q55-216 20-216Z"  horiz-adv-x="181" vert-adv-y="1000"  />

      
      <glyph glyph-name="unib9" unicode="&#xb9;" d="M40 365L40 430L115 430L115 616L40 616L40 680L195 680L195 430L261 430L261 365L40 365Z"  horiz-adv-x="301" vert-adv-y="1000"  />

      
      <glyph glyph-name="uniba" unicode="&#xba;" d="M195 248Q134 248 92 289Q50 330 50 388Q50 447 92 488Q134 529 195 529Q255 529 297.50 487.50Q340 446 340 388Q340 330 297.50 289Q255 248 195 248M195 321Q224 321 244 340.50Q264 360 264 388Q264 417 244 437Q224 457 195 457Q165 457 145.50 437Q126 417 126 388Q126 360 145.50 340.50Q165 321 195 321Z"  horiz-adv-x="390" vert-adv-y="1000"  />

      
      <glyph glyph-name="unibb" unicode="&#xbb;" d="M30 60L160 264L30 458L148 458L278 264L148 60L30 60M220 60L350 264L220 458L338 458L468 264L338 60L220 60Z"  horiz-adv-x="414" vert-adv-y="1000"  />

      
      <glyph glyph-name="unibc" unicode="&#xbc;" d="M73-57L510 700L597 700L160-57L73-57M40 365L40 430L115 430L115 616L40 616L40 680L195 680L195 430L261 430L261 365L40 365M493 0L493 109L336 109L458 326L539 326L458 174L578 174L578 0L493 0Z"  horiz-adv-x="637" vert-adv-y="1000"  />

      
      <glyph glyph-name="unibd" unicode="&#xbd;" d="M84-57L521 700L608 700L171-57L84-57M40 365L40 430L115 430L115 616L40 616L40 680L195 680L195 430L261 430L261 365L40 365M406 1L510 127Q474 135 450.50 164Q427 193 427 229Q427 272 459 303Q491 334 536 334Q581 334 613 303Q645 272 645 229Q645 190 620 162L538 67L643 67L643 1L406 1M536 190Q552 190 563.50 201Q575 212 575 229Q575 245 563.50 256.50Q552 268 536 268Q519 268 508 256.50Q497 245 497 229Q497 212 508 201Q519 190 536 190Z"  horiz-adv-x="685" vert-adv-y="1000"  />

      
      <glyph glyph-name="unibe" unicode="&#xbe;" d="M89-57L526 700L613 700L176-57L89-57M271 369Q271 369 252.50 354Q234 339 174 339Q114 339 77 369Q40 399 40 448L125 448Q125 429 138.50 417Q152 405 174 405Q196 405 209 417Q222 429 222 448Q222 516 140 503L193 612L63 612L63 679L288 679L224 546Q258 538 283 510.50Q308 483 308 448Q308 399 271 369M506 1L506 110L349 110L471 327L552 327L471 175L591 175L591 1L506 1Z"  horiz-adv-x="653" vert-adv-y="1000"  />

      
      <glyph glyph-name="unibf" unicode="&#xbf;" d="M294 371Q261 371 237.50 394.50Q214 418 214 451Q214 485 237.50 508Q261 531 294 531Q328 531 351 508.50Q374 486 374 451Q374 418 351 394.50Q328 371 294 371M345-175Q254-175 189-112.50Q124-50 124 38Q124 97 155 146.50Q186 196 237 224L237 303L345 303L345 148Q298 148 266.50 116Q235 84 235 38Q235-8 266.50-40Q298-72 345-72L345-175Z"  horiz-adv-x="529" vert-adv-y="1000"  />

      
      <glyph glyph-name="unic0" unicode="&#xc0;" d="M322 748L200 919L333 919L423 748L322 748M21 0L323 679L430 679L732 0L605 0L540 161L213 161L148 0L21 0M254 263L499 263L377 552L254 263Z"  horiz-adv-x="753" vert-adv-y="1000"  />

      
      <glyph glyph-name="unic1" unicode="&#xc1;" d="M326 748L416 919L549 919L427 748L326 748M21 0L323 679L430 679L732 0L605 0L540 161L213 161L148 0L21 0M254 263L499 263L377 552L254 263Z"  horiz-adv-x="753" vert-adv-y="1000"  />

      
      <glyph glyph-name="unic2" unicode="&#xc2;" d="M212 748L317 919L430 919L535 748L434 748L374 831L313 748L212 748M21 0L323 679L430 679L732 0L605 0L540 161L213 161L148 0L21 0M254 263L499 263L377 552L254 263Z"  horiz-adv-x="753" vert-adv-y="1000"  />

      
      <glyph glyph-name="unic3" unicode="&#xc3;" d="M447 743Q411 743 374 769L373 769L373 770L372 770Q335 797 319 797Q314 797 310.50 795.50Q307 794 304 791Q301 788 299 785Q297 782 295.50 776.50Q294 771 293.50 768.50Q293 766 291.50 759Q290 752 290 750L207 780Q215 828 238 857.50Q261 887 299 887Q335 887 372 861L373 861L373 860L374 860Q411 833 427 833Q432 833 435.50 834.50Q439 836 442 839Q445 842 447 845Q449 848 450.50 853.50Q452 859 452.50 861.50Q453 864 454.50 871Q456 878 456 880L539 850Q531 802 508 772.50Q485 743 447 743M21 0L323 679L430 679L732 0L605 0L540 161L213 161L148 0L21 0M254 263L499 263L377 552L254 263Z"  horiz-adv-x="753" vert-adv-y="1000"  />

      
      <glyph glyph-name="unic4" unicode="&#xc4;" d="M262 760Q239 760 222.50 776Q206 792 206 815Q206 838 222.50 854.50Q239 871 262 871Q285 871 301 854.50Q317 838 317 815Q317 792 300.50 776Q284 760 262 760M454 760Q431 760 414.50 776Q398 792 398 815Q398 838 414.50 854.50Q431 871 454 871Q477 871 493 854.50Q509 838 509 815Q509 792 492.50 776Q476 760 454 760M21 0L323 679L430 679L732 0L605 0L540 161L213 161L148 0L21 0M254 263L499 263L377 552L254 263Z"  horiz-adv-x="753" vert-adv-y="1000"  />

      
      <glyph glyph-name="unic5" unicode="&#xc5;" d="M446 772.50Q446 772.50 431 757.75Q416 743 373 743Q330 743 300.50 772.50Q271 802 271 845Q271 889 300.50 919Q330 949 373 949Q416 949 446 918.50Q476 888 476 845Q476 802 446 772.50M351.50 823.50Q351.50 823.50 355.75 819.25Q360 815 373 815Q386 815 395 823.50Q404 832 404 845Q404 858 395 867.50Q386 877 373 877Q360 877 351.50 868Q343 859 343 845Q343 832 351.50 823.50M21 0L323 679L430 679L732 0L605 0L540 161L213 161L148 0L21 0M254 263L499 263L377 552L254 263Z"  horiz-adv-x="753" vert-adv-y="1000"  />

      
      <glyph glyph-name="unic6" unicode="&#xc6;" d="M608 102L1001 102L1001 0L499 0L499 161L238 161L125 0L0 0L487 679L995 679L995 577L608 577L608 413L916 413L916 311L608 311L608 102M499 263L499 532L310 263L499 263Z"  horiz-adv-x="1051" vert-adv-y="1000"  />

      
      <glyph glyph-name="unic7" unicode="&#xc7;" d="M659 46L648 40Q637 33 628 28.50Q619 24 599.50 16Q580 8 560.50 2.50Q541-3 512.50-7.50Q484-12 453-14L438-65Q445-66 456-69.50Q467-73 485-89Q503-105 503-128Q503-158 480-177.50Q457-197 427-204Q397-211 362-211L362-153Q384-153 403-144Q422-135 422-117Q422-102 408-92.50Q394-83 380-81L365-79L383-14Q233-3 138 99Q43 201 45 340Q43 489 149.50 593Q256 697 420 695Q552 695 640 635L640 520Q636 527 608.50 543.50Q581 560 527.50 576.50Q474 593 420 593Q299 593 228.50 521.50Q158 450 158 340Q158 230 228.50 159Q299 88 420 88Q488 88 552 107.50Q616 127 659 163L659 46Z"  horiz-adv-x="704" vert-adv-y="1000"  />

      
      <glyph glyph-name="unic8" unicode="&#xc8;" d="M390 748L289 748L167 919L300 919L390 748M199 102L592 102L592 0L90 0L90 679L586 679L586 577L199 577L199 413L507 413L507 311L199 311L199 102Z"  horiz-adv-x="642" vert-adv-y="1000"  />

      
      <glyph glyph-name="unic9" unicode="&#xc9;" d="M516 919L394 748L293 748L383 919L516 919M199 102L592 102L592 0L90 0L90 679L586 679L586 577L199 577L199 413L507 413L507 311L199 311L199 102Z"  horiz-adv-x="642" vert-adv-y="1000"  />

      
      <glyph glyph-name="unica" unicode="&#xca;" d="M341 831L280 748L179 748L284 919L397 919L502 748L401 748L341 831M199 102L592 102L592 0L90 0L90 679L586 679L586 577L199 577L199 413L507 413L507 311L199 311L199 102Z"  horiz-adv-x="642" vert-adv-y="1000"  />

      
      <glyph glyph-name="unicb" unicode="&#xcb;" d="M268 776Q268 776 260 768Q252 760 229 760Q206 760 189.50 776Q173 792 173 815Q173 838 189.50 854.50Q206 871 229 871Q252 871 268 854.50Q284 838 284 815Q284 792 268 776M460 776Q460 776 452 768Q444 760 421 760Q398 760 381.50 776Q365 792 365 815Q365 838 381.50 854.50Q398 871 421 871Q444 871 460 854.50Q476 838 476 815Q476 792 460 776M199 102L592 102L592 0L90 0L90 679L586 679L586 577L199 577L199 413L507 413L507 311L199 311L199 102Z"  horiz-adv-x="642" vert-adv-y="1000"  />

      
      <glyph glyph-name="unicc" unicode="&#xcc;" d="M93 748L-29 919L104 919L194 748L93 748M90 0L90 679L199 679L199 0L90 0Z"  horiz-adv-x="289" vert-adv-y="1000"  />

      
      <glyph glyph-name="unicd" unicode="&#xcd;" d="M97 748L187 919L320 919L198 748L97 748M90 0L90 679L199 679L199 0L90 0Z"  horiz-adv-x="289" vert-adv-y="1000"  />

      
      <glyph glyph-name="unice" unicode="&#xce;" d="M-17 748L88 919L201 919L306 748L205 748L145 831L84 748L-17 748M90 0L90 679L199 679L199 0L90 0Z"  horiz-adv-x="289" vert-adv-y="1000"  />

      
      <glyph glyph-name="unicf" unicode="&#xcf;" d="M72 776Q72 776 64 768Q56 760 33 760Q10 760-6.50 776Q-23 792-23 815Q-23 838-6.50 854.50Q10 871 33 871Q56 871 72 854.50Q88 838 88 815Q88 792 72 776M264 776Q264 776 256 768Q248 760 225 760Q202 760 185.50 776Q169 792 169 815Q169 838 185.50 854.50Q202 871 225 871Q248 871 264 854.50Q280 838 280 815Q280 792 264 776M90 0L90 679L199 679L199 0L90 0Z"  horiz-adv-x="289" vert-adv-y="1000"  />

      
      <glyph glyph-name="unid0" unicode="&#xd0;" d="M366 679Q538 679 636.50 585Q735 491 735 340Q735 190 634 95Q533 0 366 0L120 0L120 297L0 297L0 387L120 387L120 679L366 679M358 103Q479 103 548.50 162Q618 221 622 340Q622 452 554.50 514.50Q487 577 357 577L229 577L229 387L347 387L347 297L229 297L229 103L358 103Z"  horiz-adv-x="790" vert-adv-y="1000"  />

      
      <glyph glyph-name="unid1" unicode="&#xd1;" d="M459 743Q423 743 386 769L385 769L385 770L384 770Q347 797 331 797Q326 797 322.50 795.50Q319 794 316 791Q313 788 311 785Q309 782 307.50 776.50Q306 771 305.50 768.50Q305 766 303.50 759Q302 752 302 750L219 780Q227 828 250 857.50Q273 887 311 887Q347 887 384 861L385 861L385 860L386 860Q423 833 439 833Q444 833 447.50 834.50Q451 836 454 839Q457 842 459 845Q461 848 462.50 853.50Q464 859 464.50 861.50Q465 864 466.50 871Q468 878 468 880L551 850Q543 802 520 772.50Q497 743 459 743M90 0L90 679L215 679L573 165L573 679L681 679L681 0L560 0L198 523L198 0L90 0Z"  horiz-adv-x="771" vert-adv-y="1000"  />

      
      <glyph glyph-name="unid2" unicode="&#xd2;" d="M350 748L228 919L361 919L451 748L350 748M401-15Q248-17 145.50 87.50Q43 192 45 340Q43 488 145.50 592.50Q248 697 401 695Q554 697 657 592.50Q760 488 758 340Q760 192 657 87.50Q554-17 401-15M401 88Q511 88 578 159.50Q645 231 645 340Q645 449 578 521Q511 593 401 593Q292 593 224.50 521Q157 449 157 340Q157 231 224.50 159.50Q292 88 401 88Z"  horiz-adv-x="803" vert-adv-y="1000"  />

      
      <glyph glyph-name="unid3" unicode="&#xd3;" d="M354 748L444 919L577 919L455 748L354 748M401-15Q248-17 145.50 87.50Q43 192 45 340Q43 488 145.50 592.50Q248 697 401 695Q554 697 657 592.50Q760 488 758 340Q760 192 657 87.50Q554-17 401-15M401 88Q511 88 578 159.50Q645 231 645 340Q645 449 578 521Q511 593 401 593Q292 593 224.50 521Q157 449 157 340Q157 231 224.50 159.50Q292 88 401 88Z"  horiz-adv-x="803" vert-adv-y="1000"  />

      
      <glyph glyph-name="unid4" unicode="&#xd4;" d="M240 748L345 919L458 919L563 748L462 748L402 831L341 748L240 748M401-15Q248-17 145.50 87.50Q43 192 45 340Q43 488 145.50 592.50Q248 697 401 695Q554 697 657 592.50Q760 488 758 340Q760 192 657 87.50Q554-17 401-15M401 88Q511 88 578 159.50Q645 231 645 340Q645 449 578 521Q511 593 401 593Q292 593 224.50 521Q157 449 157 340Q157 231 224.50 159.50Q292 88 401 88Z"  horiz-adv-x="803" vert-adv-y="1000"  />

      
      <glyph glyph-name="unid5" unicode="&#xd5;" d="M475 743Q439 743 402 769L401 769L401 770L400 770Q363 797 347 797Q342 797 338.50 795.50Q335 794 332 791Q329 788 327 785Q325 782 323.50 776.50Q322 771 321.50 768.50Q321 766 319.50 759Q318 752 318 750L235 780Q243 828 266 857.50Q289 887 327 887Q363 887 400 861L401 861L401 860L402 860Q439 833 455 833Q460 833 463.50 834.50Q467 836 470 839Q473 842 475 845Q477 848 478.50 853.50Q480 859 480.50 861.50Q481 864 482.50 871Q484 878 484 880L567 850Q559 802 536 772.50Q513 743 475 743M401-15Q248-17 145.50 87.50Q43 192 45 340Q43 488 145.50 592.50Q248 697 401 695Q554 697 657 592.50Q760 488 758 340Q760 192 657 87.50Q554-17 401-15M401 88Q511 88 578 159.50Q645 231 645 340Q645 449 578 521Q511 593 401 593Q292 593 224.50 521Q157 449 157 340Q157 231 224.50 159.50Q292 88 401 88Z"  horiz-adv-x="803" vert-adv-y="1000"  />

      
      <glyph glyph-name="unid6" unicode="&#xd6;" d="M290 760Q267 760 250.50 776Q234 792 234 815Q234 838 250.50 854.50Q267 871 290 871Q313 871 329 854.50Q345 838 345 815Q345 792 328.50 776Q312 760 290 760M482 760Q459 760 442.50 776Q426 792 426 815Q426 838 442.50 854.50Q459 871 482 871Q505 871 521 854.50Q537 838 537 815Q537 792 520.50 776Q504 760 482 760M401-15Q248-17 145.50 87.50Q43 192 45 340Q43 488 145.50 592.50Q248 697 401 695Q554 697 657 592.50Q760 488 758 340Q760 192 657 87.50Q554-17 401-15M401 88Q511 88 578 159.50Q645 231 645 340Q645 449 578 521Q511 593 401 593Q292 593 224.50 521Q157 449 157 340Q157 231 224.50 159.50Q292 88 401 88Z"  horiz-adv-x="803" vert-adv-y="1000"  />

      
      <glyph glyph-name="unid7" unicode="&#xd7;" d="M192 111L119 184L271 336L119 488L192 561L344 409L496 561L569 488L417 336L569 184L496 111L344 263L192 111Z"  horiz-adv-x="677" vert-adv-y="1000"  />

      
      <glyph glyph-name="unid8" unicode="&#xd8;" d="M697 545Q760 453 758 340Q760 192 657 87.50Q554-17 401-15Q272-16 176 60L98-13L20 65L102 141Q44 231 45 340Q43 488 145.50 592.50Q248 697 401 695Q526 696 621 624L703 701L781 623L697 545M157 340Q157 272 184 218L542 552Q482 593 401 593Q292 593 224.50 521Q157 449 157 340M401 88Q511 88 578 159.50Q645 231 645 340Q645 412 615 469L255 133Q316 88 401 88Z"  horiz-adv-x="803" vert-adv-y="1000"  />

      
      <glyph glyph-name="unid9" unicode="&#xd9;" d="M301 748L179 919L312 919L402 748L301 748M556 52.50Q556 52.50 518.50 18.75Q481-15 353-15Q225-15 150 52.50Q75 120 75 259L75 679L184 679L184 261Q184 175 231.50 132.50Q279 90 353 90Q437 90 479.50 131Q522 172 522 261L522 679L631 679L631 259Q631 120 556 52.50Z"  horiz-adv-x="706" vert-adv-y="1000"  />

      
      <glyph glyph-name="unida" unicode="&#xda;" d="M305 748L395 919L528 919L406 748L305 748M556 52.50Q556 52.50 518.50 18.75Q481-15 353-15Q225-15 150 52.50Q75 120 75 259L75 679L184 679L184 261Q184 175 231.50 132.50Q279 90 353 90Q437 90 479.50 131Q522 172 522 261L522 679L631 679L631 259Q631 120 556 52.50Z"  horiz-adv-x="706" vert-adv-y="1000"  />

      
      <glyph glyph-name="unidb" unicode="&#xdb;" d="M191 748L296 919L409 919L514 748L413 748L353 831L292 748L191 748M556 52.50Q556 52.50 518.50 18.75Q481-15 353-15Q225-15 150 52.50Q75 120 75 259L75 679L184 679L184 261Q184 175 231.50 132.50Q279 90 353 90Q437 90 479.50 131Q522 172 522 261L522 679L631 679L631 259Q631 120 556 52.50Z"  horiz-adv-x="706" vert-adv-y="1000"  />

      
      <glyph glyph-name="unidc" unicode="&#xdc;" d="M280 776Q280 776 272 768Q264 760 241 760Q218 760 201.50 776Q185 792 185 815Q185 838 201.50 854.50Q218 871 241 871Q264 871 280 854.50Q296 838 296 815Q296 792 280 776M472 776Q472 776 464 768Q456 760 433 760Q410 760 393.50 776Q377 792 377 815Q377 838 393.50 854.50Q410 871 433 871Q456 871 472 854.50Q488 838 488 815Q488 792 472 776M556 52.50Q556 52.50 518.50 18.75Q481-15 353-15Q225-15 150 52.50Q75 120 75 259L75 679L184 679L184 261Q184 175 231.50 132.50Q279 90 353 90Q437 90 479.50 131Q522 172 522 261L522 679L631 679L631 259Q631 120 556 52.50Z"  horiz-adv-x="706" vert-adv-y="1000"  />

      
      <glyph glyph-name="unidd" unicode="&#xdd;" d="M513 919L391 748L290 748L380 919L513 919M525 679L656 679L393 291L393 0L283 0L283 291L20 679L150 679L338 390L525 679Z"  horiz-adv-x="676" vert-adv-y="1000"  />

      
      <glyph glyph-name="unide" unicode="&#xde;" d="M389 589Q512 589 580.50 523.50Q649 458 649 341Q649 228 577 160.50Q505 93 386 93L199 93L199 0L90 0L90 679L199 679L199 589L389 589M381 193Q537 193 537 339Q537 487 381 487L199 487L199 193L381 193Z"  horiz-adv-x="698" vert-adv-y="1000"  />

      
      <glyph glyph-name="unidf" unicode="&#xdf;" d="M336-13Q312-13 293-10L293 84Q319 80 336 80Q383 80 420 105Q457 130 457 187Q457 244 412.50 278.50Q368 313 310 313L293 313L293 404Q343 404 381.50 430.50Q420 457 420 514Q420 610 316 610Q268 610 232.50 573.50Q197 537 197 472L197 0L90 0L90 317L10 317L10 403L90 403L90 462Q90 569 150.50 633.50Q211 698 316 698Q416 698 469 650.50Q522 603 522 515Q522 459 489.50 419.50Q457 380 403 369Q479 357 523 307.50Q567 258 567 190Q567 94 501.50 40.50Q436-13 336-13Z"  horiz-adv-x="607" vert-adv-y="1000"  />

      
      <glyph glyph-name="unie0" unicode="&#xe0;" d="M279 585L157 756L290 756L380 585L279 585M310-15Q193-15 116.50 64Q40 143 40 258Q40 373 116.50 452.50Q193 532 310 532Q419 532 484 467L484 517L591 517L591 0L482 0L483 53Q417-15 310-15M318 81Q392 81 441 129Q490 177 490 259Q490 341 441 388.50Q392 436 318 436Q246 436 197 384.50Q148 333 148 259Q148 185 197 133Q246 81 318 81Z"  horiz-adv-x="672" vert-adv-y="1000"  />

      
      <glyph glyph-name="unie1" unicode="&#xe1;" d="M283 585L373 756L506 756L384 585L283 585M310-15Q193-15 116.50 64Q40 143 40 258Q40 373 116.50 452.50Q193 532 310 532Q419 532 484 467L484 517L591 517L591 0L482 0L483 53Q417-15 310-15M318 81Q392 81 441 129Q490 177 490 259Q490 341 441 388.50Q392 436 318 436Q246 436 197 384.50Q148 333 148 259Q148 185 197 133Q246 81 318 81Z"  horiz-adv-x="672" vert-adv-y="1000"  />

      
      <glyph glyph-name="unie2" unicode="&#xe2;" d="M169 585L274 756L387 756L492 585L391 585L331 668L270 585L169 585M310-15Q193-15 116.50 64Q40 143 40 258Q40 373 116.50 452.50Q193 532 310 532Q419 532 484 467L484 517L591 517L591 0L482 0L483 53Q417-15 310-15M318 81Q392 81 441 129Q490 177 490 259Q490 341 441 388.50Q392 436 318 436Q246 436 197 384.50Q148 333 148 259Q148 185 197 133Q246 81 318 81Z"  horiz-adv-x="672" vert-adv-y="1000"  />

      
      <glyph glyph-name="unie3" unicode="&#xe3;" d="M404 580Q368 580 331 606L330 606L330 607L329 607Q292 634 276 634Q271 634 267.50 632.50Q264 631 261 628Q258 625 256 622Q254 619 252.50 613.50Q251 608 250.50 605.50Q250 603 248.50 596Q247 589 247 587L164 617Q172 665 195 694.50Q218 724 256 724Q292 724 329 698L330 698L330 697L331 697Q368 670 384 670Q389 670 392.50 671.50Q396 673 399 676Q402 679 404 682Q406 685 407.50 690.50Q409 696 409.50 698.50Q410 701 411.50 708Q413 715 413 717L496 687Q488 639 465 609.50Q442 580 404 580M310-15Q193-15 116.50 64Q40 143 40 258Q40 373 116.50 452.50Q193 532 310 532Q419 532 484 467L484 517L591 517L591 0L482 0L483 53Q417-15 310-15M318 81Q392 81 441 129Q490 177 490 259Q490 341 441 388.50Q392 436 318 436Q246 436 197 384.50Q148 333 148 259Q148 185 197 133Q246 81 318 81Z"  horiz-adv-x="672" vert-adv-y="1000"  />

      
      <glyph glyph-name="unie4" unicode="&#xe4;" d="M258 613.50Q258 613.50 250 605.25Q242 597 219 597Q196 597 179.50 613Q163 629 163 652Q163 675 179.50 691.50Q196 708 219 708Q242 708 258 691.50Q274 675 274 652Q274 630 258 613.50M450 613.50Q450 613.50 442 605.25Q434 597 411 597Q388 597 371.50 613Q355 629 355 652Q355 675 371.50 691.50Q388 708 411 708Q434 708 450 691.50Q466 675 466 652Q466 630 450 613.50M310-15Q193-15 116.50 64Q40 143 40 258Q40 373 116.50 452.50Q193 532 310 532Q419 532 484 467L484 517L591 517L591 0L482 0L483 53Q417-15 310-15M318 81Q392 81 441 129Q490 177 490 259Q490 341 441 388.50Q392 436 318 436Q246 436 197 384.50Q148 333 148 259Q148 185 197 133Q246 81 318 81Z"  horiz-adv-x="672" vert-adv-y="1000"  />

      
      <glyph glyph-name="unie5" unicode="&#xe5;" d="M403 609.50Q403 609.50 388 594.75Q373 580 330 580Q287 580 257.50 609.50Q228 639 228 682Q228 726 257.50 756Q287 786 330 786Q373 786 403 755.50Q433 725 433 682Q433 639 403 609.50M308.50 660.50Q308.50 660.50 312.75 656.25Q317 652 330 652Q343 652 352 660.50Q361 669 361 682Q361 695 352 704.50Q343 714 330 714Q317 714 308.50 705Q300 696 300 682Q300 669 308.50 660.50M310-15Q193-15 116.50 64Q40 143 40 258Q40 373 116.50 452.50Q193 532 310 532Q419 532 484 467L484 517L591 517L591 0L482 0L483 53Q417-15 310-15M318 81Q392 81 441 129Q490 177 490 259Q490 341 441 388.50Q392 436 318 436Q246 436 197 384.50Q148 333 148 259Q148 185 197 133Q246 81 318 81Z"  horiz-adv-x="672" vert-adv-y="1000"  />

      
      <glyph glyph-name="unie6" unicode="&#xe6;" d="M933 233L525 233L525 209Q540 152 585.50 116.50Q631 81 705 81Q725 81 745 83Q765 85 782 88Q799 91 814.50 95Q830 99 842.50 103.50Q855 108 866 112.50Q877 117 885 121Q893 125 898.50 128Q904 131 907 133L910 135L910 38Q908 36 903 32.50Q898 29 880.50 19.50Q863 10 841.50 3Q820-4 782.50-9.50Q745-15 703-15Q555-15 476 84Q412-15 254-15Q160-15 100 33.50Q40 82 40 159Q40 238 100 286.50Q160 335 254 335Q350 335 417 301L417 314Q417 437 265 437Q177 437 99 399L99 498Q167 533 277 533Q427 533 489 446Q570 532 696 532Q803 532 868 457.50Q933 383 933 283L933 233M682 444Q608 444 570 402.50Q532 361 525 317L825 317Q823 336 816.50 354.50Q810 373 795 395Q780 417 751 430.50Q722 444 682 444M274 73Q345 73 381 96Q417 119 417 159Q417 203 379 225Q341 247 274 247Q217 247 180.50 224Q144 201 144 159Q144 116 182.50 94.50Q221 73 274 73Z"  horiz-adv-x="973" vert-adv-y="1000"  />

      
      <glyph glyph-name="unie7" unicode="&#xe7;" d="M518 34Q470-4 367-14L351-65Q358-66 369-69.50Q380-73 398-89Q416-105 416-128Q416-158 393-177.50Q370-197 340-204Q310-211 275-211L275-153Q297-153 316-144Q335-135 335-117Q335-102 320.50-92.50Q306-83 292-81L278-79L296-13Q174-3 107 73Q40 149 40 259Q40 374 119.50 453Q199 532 323 532Q442 532 508 470L508 359Q506 362 501 367.50Q496 373 478.50 386.50Q461 400 441.50 410Q422 420 390 428.50Q358 437 323 437Q247 437 196 385Q145 333 145 259Q145 178 196 129Q247 80 333 80Q387 80 433 93.50Q479 107 498 120L518 134L518 34Z"  horiz-adv-x="553" vert-adv-y="1000"  />

      
      <glyph glyph-name="unie8" unicode="&#xe8;" d="M267 585L145 756L278 756L368 585L267 585M326-15Q194-15 117 64Q40 143 40 259Q40 376 119.50 454Q199 532 319 532Q426 532 491 457.50Q556 383 556 283L556 233L143 233Q153 167 199.50 124Q246 81 328 81Q348 81 368 83Q388 85 405 88Q422 91 437.50 95Q453 99 465.50 103.50Q478 108 489 112.50Q500 117 508 121Q516 125 521.50 128Q527 131 530 133L533 135L533 38Q531 36 526 32.50Q521 29 503.50 19.50Q486 10 464.50 3Q443-4 405.50-9.50Q368-15 326-15M148 317L448 317Q446 336 439.50 354.50Q433 373 418 395Q403 417 374 430.50Q345 444 305 444Q231 444 193 402.50Q155 361 148 317Z"  horiz-adv-x="596" vert-adv-y="1000"  />

      
      <glyph glyph-name="unie9" unicode="&#xe9;" d="M271 585L361 756L494 756L372 585L271 585M326-15Q194-15 117 64Q40 143 40 259Q40 376 119.50 454Q199 532 319 532Q426 532 491 457.50Q556 383 556 283L556 233L143 233Q153 167 199.50 124Q246 81 328 81Q348 81 368 83Q388 85 405 88Q422 91 437.50 95Q453 99 465.50 103.50Q478 108 489 112.50Q500 117 508 121Q516 125 521.50 128Q527 131 530 133L533 135L533 38Q531 36 526 32.50Q521 29 503.50 19.50Q486 10 464.50 3Q443-4 405.50-9.50Q368-15 326-15M148 317L448 317Q446 336 439.50 354.50Q433 373 418 395Q403 417 374 430.50Q345 444 305 444Q231 444 193 402.50Q155 361 148 317Z"  horiz-adv-x="596" vert-adv-y="1000"  />

      
      <glyph glyph-name="uniea" unicode="&#xea;" d="M157 585L262 756L375 756L480 585L379 585L319 668L258 585L157 585M326-15Q194-15 117 64Q40 143 40 259Q40 376 119.50 454Q199 532 319 532Q426 532 491 457.50Q556 383 556 283L556 233L143 233Q153 167 199.50 124Q246 81 328 81Q348 81 368 83Q388 85 405 88Q422 91 437.50 95Q453 99 465.50 103.50Q478 108 489 112.50Q500 117 508 121Q516 125 521.50 128Q527 131 530 133L533 135L533 38Q531 36 526 32.50Q521 29 503.50 19.50Q486 10 464.50 3Q443-4 405.50-9.50Q368-15 326-15M148 317L448 317Q446 336 439.50 354.50Q433 373 418 395Q403 417 374 430.50Q345 444 305 444Q231 444 193 402.50Q155 361 148 317Z"  horiz-adv-x="596" vert-adv-y="1000"  />

      
      <glyph glyph-name="unieb" unicode="&#xeb;" d="M246 613.50Q246 613.50 238 605.25Q230 597 207 597Q184 597 167.50 613Q151 629 151 652Q151 675 167.50 691.50Q184 708 207 708Q230 708 246 691.50Q262 675 262 652Q262 630 246 613.50M438 613.50Q438 613.50 430 605.25Q422 597 399 597Q376 597 359.50 613Q343 629 343 652Q343 675 359.50 691.50Q376 708 399 708Q422 708 438 691.50Q454 675 454 652Q454 630 438 613.50M326-15Q194-15 117 64Q40 143 40 259Q40 376 119.50 454Q199 532 319 532Q426 532 491 457.50Q556 383 556 283L556 233L143 233Q153 167 199.50 124Q246 81 328 81Q348 81 368 83Q388 85 405 88Q422 91 437.50 95Q453 99 465.50 103.50Q478 108 489 112.50Q500 117 508 121Q516 125 521.50 128Q527 131 530 133L533 135L533 38Q531 36 526 32.50Q521 29 503.50 19.50Q486 10 464.50 3Q443-4 405.50-9.50Q368-15 326-15M148 317L448 317Q446 336 439.50 354.50Q433 373 418 395Q403 417 374 430.50Q345 444 305 444Q231 444 193 402.50Q155 361 148 317Z"  horiz-adv-x="596" vert-adv-y="1000"  />

      
      <glyph glyph-name="uniec" unicode="&#xec;" d="M89 585L-33 756L100 756L190 585L89 585M86 0L86 517L194 517L194 0L86 0Z"  horiz-adv-x="274" vert-adv-y="1000"  />

      
      <glyph glyph-name="unied" unicode="&#xed;" d="M93 585L183 756L316 756L194 585L93 585M86 0L86 517L194 517L194 0L86 0Z"  horiz-adv-x="274" vert-adv-y="1000"  />

      
      <glyph glyph-name="uniee" unicode="&#xee;" d="M-21 585L84 756L197 756L302 585L201 585L141 668L80 585L-21 585M86 0L86 517L194 517L194 0L86 0Z"  horiz-adv-x="274" vert-adv-y="1000"  />

      
      <glyph glyph-name="unief" unicode="&#xef;" d="M68 613.50Q68 613.50 60 605.25Q52 597 29 597Q6 597-10.50 613Q-27 629-27 652Q-27 675-10.50 691.50Q6 708 29 708Q52 708 68 691.50Q84 675 84 652Q84 630 68 613.50M260 613.50Q260 613.50 252 605.25Q244 597 221 597Q198 597 181.50 613Q165 629 165 652Q165 675 181.50 691.50Q198 708 221 708Q244 708 260 691.50Q276 675 276 652Q276 630 260 613.50M86 0L86 517L194 517L194 0L86 0Z"  horiz-adv-x="274" vert-adv-y="1000"  />

      
      <glyph glyph-name="unif0" unicode="&#xf0;" d="M295-15Q180-15 110 49Q40 113 40 217Q40 322 107 386Q174 450 284 450Q339 450 384 427Q429 404 455 369Q425 485 344 534L319 478L238 517L261 567Q198 582 101 582L101 676Q216 676 298 649L319 696L399 656L380 614Q549 515 549 273Q549 133 478.50 59Q408-15 295-15M295 81Q360 81 401 122.50Q442 164 442 220Q442 280 399.50 317Q357 354 284 354Q223 354 185.50 317Q148 280 148 220Q148 158 188.50 119.50Q229 81 295 81Z"  horiz-adv-x="589" vert-adv-y="1000"  />

      
      <glyph glyph-name="unif1" unicode="&#xf1;" d="M294 634Q289 634 285.50 632.50Q282 631 279 628Q276 625 274 622Q272 619 270.50 613.50Q269 608 268.50 605.50Q268 603 266.50 596Q265 589 265 587L182 617Q190 665 213 694.50Q236 724 274 724Q310 724 347 698L348 698L348 697L349 697Q386 670 402 670Q407 670 410.50 671.50Q414 673 417 676Q420 679 422 682Q424 685 425.50 690.50Q427 696 427.50 698.50Q428 701 429.50 708Q431 715 431 717L514 687Q506 639 483 609.50Q460 580 422 580Q386 580 349 606L348 606L348 607L347 607Q310 634 294 634M355 533Q446 533 504.50 477Q563 421 563 318L563 0L455 0L455 307Q455 369 424 403Q393 437 339 437Q279 437 236.50 398.50Q194 360 194 291L194 0L86 0L86 517L194 517L194 453Q195 456 198.50 461.50Q202 467 214.50 481Q227 495 243.50 505.50Q260 516 290 524.50Q320 533 355 533Z"  horiz-adv-x="633" vert-adv-y="1000"  />

      
      <glyph glyph-name="unif2" unicode="&#xf2;" d="M271 585L149 756L282 756L372 585L271 585M523.50 65Q523.50 65 482.25 25Q441-15 323-15Q205-15 122.50 65Q40 145 40 258Q40 371 122.50 451.50Q205 532 323 532Q441 532 523.50 451.50Q606 371 606 258Q606 145 523.50 65M195.50 133.50Q195.50 133.50 221.25 107.75Q247 82 323 82Q399 82 450.50 133.50Q502 185 502 258Q502 332 450.50 383.50Q399 435 323 435Q247 435 195.50 383.50Q144 332 144 258Q144 185 195.50 133.50Z"  horiz-adv-x="646" vert-adv-y="1000"  />

      
      <glyph glyph-name="unif3" unicode="&#xf3;" d="M275 585L365 756L498 756L376 585L275 585M523.50 65Q523.50 65 482.25 25Q441-15 323-15Q205-15 122.50 65Q40 145 40 258Q40 371 122.50 451.50Q205 532 323 532Q441 532 523.50 451.50Q606 371 606 258Q606 145 523.50 65M195.50 133.50Q195.50 133.50 221.25 107.75Q247 82 323 82Q399 82 450.50 133.50Q502 185 502 258Q502 332 450.50 383.50Q399 435 323 435Q247 435 195.50 383.50Q144 332 144 258Q144 185 195.50 133.50Z"  horiz-adv-x="646" vert-adv-y="1000"  />

      
      <glyph glyph-name="unif4" unicode="&#xf4;" d="M161 585L266 756L379 756L484 585L383 585L323 668L262 585L161 585M523.50 65Q523.50 65 482.25 25Q441-15 323-15Q205-15 122.50 65Q40 145 40 258Q40 371 122.50 451.50Q205 532 323 532Q441 532 523.50 451.50Q606 371 606 258Q606 145 523.50 65M195.50 133.50Q195.50 133.50 221.25 107.75Q247 82 323 82Q399 82 450.50 133.50Q502 185 502 258Q502 332 450.50 383.50Q399 435 323 435Q247 435 195.50 383.50Q144 332 144 258Q144 185 195.50 133.50Z"  horiz-adv-x="646" vert-adv-y="1000"  />

      
      <glyph glyph-name="unif5" unicode="&#xf5;" d="M396 580Q360 580 323 606L322 606L322 607L321 607Q284 634 268 634Q263 634 259.50 632.50Q256 631 253 628Q250 625 248 622Q246 619 244.50 613.50Q243 608 242.50 605.50Q242 603 240.50 596Q239 589 239 587L156 617Q164 665 187 694.50Q210 724 248 724Q284 724 321 698L322 698L322 697L323 697Q360 670 376 670Q381 670 384.50 671.50Q388 673 391 676Q394 679 396 682Q398 685 399.50 690.50Q401 696 401.50 698.50Q402 701 403.50 708Q405 715 405 717L488 687Q480 639 457 609.50Q434 580 396 580M523.50 65Q523.50 65 482.25 25Q441-15 323-15Q205-15 122.50 65Q40 145 40 258Q40 371 122.50 451.50Q205 532 323 532Q441 532 523.50 451.50Q606 371 606 258Q606 145 523.50 65M195.50 133.50Q195.50 133.50 221.25 107.75Q247 82 323 82Q399 82 450.50 133.50Q502 185 502 258Q502 332 450.50 383.50Q399 435 323 435Q247 435 195.50 383.50Q144 332 144 258Q144 185 195.50 133.50Z"  horiz-adv-x="646" vert-adv-y="1000"  />

      
      <glyph glyph-name="unif6" unicode="&#xf6;" d="M250 613.50Q250 613.50 242 605.25Q234 597 211 597Q188 597 171.50 613Q155 629 155 652Q155 675 171.50 691.50Q188 708 211 708Q234 708 250 691.50Q266 675 266 652Q266 630 250 613.50M442 613.50Q442 613.50 434 605.25Q426 597 403 597Q380 597 363.50 613Q347 629 347 652Q347 675 363.50 691.50Q380 708 403 708Q426 708 442 691.50Q458 675 458 652Q458 630 442 613.50M523.50 65Q523.50 65 482.25 25Q441-15 323-15Q205-15 122.50 65Q40 145 40 258Q40 371 122.50 451.50Q205 532 323 532Q441 532 523.50 451.50Q606 371 606 258Q606 145 523.50 65M195.50 133.50Q195.50 133.50 221.25 107.75Q247 82 323 82Q399 82 450.50 133.50Q502 185 502 258Q502 332 450.50 383.50Q399 435 323 435Q247 435 195.50 383.50Q144 332 144 258Q144 185 195.50 133.50Z"  horiz-adv-x="646" vert-adv-y="1000"  />

      
      <glyph glyph-name="unif7" unicode="&#xf7;" d="M293 359Q258 359 235.50 381.50Q213 404 213 439Q213 472 236 495.50Q259 519 293 519Q326 519 349.50 495.50Q373 472 373 439Q373 405 349.50 382Q326 359 293 359M71 206L71 308L514 308L514 206L71 206M293-7Q258-7 235.50 15.50Q213 38 213 73Q213 106 236 129.50Q259 153 293 153Q326 153 349.50 129.50Q373 106 373 73Q373 39 349.50 16Q326-7 293-7Z"  horiz-adv-x="585" vert-adv-y="1000"  />

      
      <glyph glyph-name="unif8" unicode="&#xf8;" d="M606 454L559 409Q606 342 606 258Q606 145 523.50 65Q441-15 323-15Q237-15 166 31L118-15L40 63L86 108Q40 176 40 258Q40 371 122.50 451.50Q205 532 323 532Q409 532 480 486L528 532L606 454M144 258Q144 216 162 180L407 415Q369 435 323 435Q247 435 195.50 383.50Q144 332 144 258M502 258Q502 301 484 337L239 102Q277 82 323 82Q399 82 450.50 133.50Q502 185 502 258Z"  horiz-adv-x="646" vert-adv-y="1000"  />

      
      <glyph glyph-name="unif9" unicode="&#xf9;" d="M253 585L131 756L264 756L354 585L253 585M540 209Q540-16 305-16Q70-16 70 209L70 517L178 517L178 206Q178 201 178.50 192.50Q179 184 185 162Q191 140 202.50 123Q214 106 241 92.50Q268 79 305 79Q342 79 369 92Q396 105 407.50 124Q419 143 425.50 161.50Q432 180 432 193L432 206L432 517L540 517L540 209Z"  horiz-adv-x="610" vert-adv-y="1000"  />

      
      <glyph glyph-name="unifa" unicode="&#xfa;" d="M257 585L347 756L480 756L358 585L257 585M540 209Q540-16 305-16Q70-16 70 209L70 517L178 517L178 206Q178 201 178.50 192.50Q179 184 185 162Q191 140 202.50 123Q214 106 241 92.50Q268 79 305 79Q342 79 369 92Q396 105 407.50 124Q419 143 425.50 161.50Q432 180 432 193L432 206L432 517L540 517L540 209Z"  horiz-adv-x="610" vert-adv-y="1000"  />

      
      <glyph glyph-name="unifb" unicode="&#xfb;" d="M143 585L248 756L361 756L466 585L365 585L305 668L244 585L143 585M540 209Q540-16 305-16Q70-16 70 209L70 517L178 517L178 206Q178 201 178.50 192.50Q179 184 185 162Q191 140 202.50 123Q214 106 241 92.50Q268 79 305 79Q342 79 369 92Q396 105 407.50 124Q419 143 425.50 161.50Q432 180 432 193L432 206L432 517L540 517L540 209Z"  horiz-adv-x="610" vert-adv-y="1000"  />

      
      <glyph glyph-name="unifc" unicode="&#xfc;" d="M232 613.50Q232 613.50 224 605.25Q216 597 193 597Q170 597 153.50 613Q137 629 137 652Q137 675 153.50 691.50Q170 708 193 708Q216 708 232 691.50Q248 675 248 652Q248 630 232 613.50M424 613.50Q424 613.50 416 605.25Q408 597 385 597Q362 597 345.50 613Q329 629 329 652Q329 675 345.50 691.50Q362 708 385 708Q408 708 424 691.50Q440 675 440 652Q440 630 424 613.50M540 209Q540-16 305-16Q70-16 70 209L70 517L178 517L178 206Q178 201 178.50 192.50Q179 184 185 162Q191 140 202.50 123Q214 106 241 92.50Q268 79 305 79Q342 79 369 92Q396 105 407.50 124Q419 143 425.50 161.50Q432 180 432 193L432 206L432 517L540 517L540 209Z"  horiz-adv-x="610" vert-adv-y="1000"  />

      
      <glyph glyph-name="unifd" unicode="&#xfd;" d="M245 585L335 756L468 756L346 585L245 585M102-208L237 60L20 517L133 517L293 174L453 517L566 517L217-208L102-208Z"  horiz-adv-x="586" vert-adv-y="1000"  />

      
      <glyph glyph-name="unife" unicode="&#xfe;" d="M81-212L81 679L189 697L189 467Q254 532 363 532Q480 532 556.50 452.50Q633 373 633 258Q633 143 556.50 64Q480-15 363-15Q253-15 189 55L189-212L81-212M365 81Q437 81 482.50 132Q528 183 528 258Q528 333 482 384.50Q436 436 365 436Q289 436 236 388Q183 340 183 258Q183 177 236 129Q289 81 365 81Z"  horiz-adv-x="673" vert-adv-y="1000"  />

      
      <glyph glyph-name="uniff" unicode="&#xff;" d="M220 613.50Q220 613.50 212 605.25Q204 597 181 597Q158 597 141.50 613Q125 629 125 652Q125 675 141.50 691.50Q158 708 181 708Q204 708 220 691.50Q236 675 236 652Q236 630 220 613.50M412 613.50Q412 613.50 404 605.25Q396 597 373 597Q350 597 333.50 613Q317 629 317 652Q317 675 333.50 691.50Q350 708 373 708Q396 708 412 691.50Q428 675 428 652Q428 630 412 613.50M102-208L237 60L20 517L133 517L293 174L453 517L566 517L217-208L102-208Z"  horiz-adv-x="586" vert-adv-y="1000"  />

      
      <glyph glyph-name="uni0100" unicode="&#x0100;" d="M235 763L235 853L512 853L512 763L235 763M21 0L323 679L430 679L732 0L605 0L540 161L213 161L148 0L21 0M254 263L499 263L377 552L254 263Z"  horiz-adv-x="753" vert-adv-y="1000"  />

      
      <glyph glyph-name="uni0101" unicode="&#x0101;" d="M192 600L192 690L469 690L469 600L192 600M310-15Q193-15 116.50 64Q40 143 40 258Q40 373 116.50 452.50Q193 532 310 532Q419 532 484 467L484 517L591 517L591 0L482 0L483 53Q417-15 310-15M318 81Q392 81 441 129Q490 177 490 259Q490 341 441 388.50Q392 436 318 436Q246 436 197 384.50Q148 333 148 259Q148 185 197 133Q246 81 318 81Z"  horiz-adv-x="672" vert-adv-y="1000"  />

      
      <glyph glyph-name="uni0102" unicode="&#x0102;" d="M494.50 800Q494.50 800 474.25 774Q454 748 373 748Q292 748 252 800Q212 852 212 919L313 919Q313 891 328 863.50Q343 836 373 836Q403 836 418.50 863.50Q434 891 434 919L535 919Q535 852 494.50 800M21 0L323 679L430 679L732 0L605 0L540 161L213 161L148 0L21 0M254 263L499 263L377 552L254 263Z"  horiz-adv-x="753" vert-adv-y="1000"  />

      
      <glyph glyph-name="uni0103" unicode="&#x0103;" d="M451.50 637Q451.50 637 431.25 611Q411 585 330 585Q249 585 209 637Q169 689 169 756L270 756Q270 728 285 700.50Q300 673 330 673Q360 673 375.50 700.50Q391 728 391 756L492 756Q492 689 451.50 637M310-15Q193-15 116.50 64Q40 143 40 258Q40 373 116.50 452.50Q193 532 310 532Q419 532 484 467L484 517L591 517L591 0L482 0L483 53Q417-15 310-15M318 81Q392 81 441 129Q490 177 490 259Q490 341 441 388.50Q392 436 318 436Q246 436 197 384.50Q148 333 148 259Q148 185 197 133Q246 81 318 81Z"  horiz-adv-x="672" vert-adv-y="1000"  />

      
      <glyph glyph-name="uni0104" unicode="&#x0104;" d="M685-94Q685-117 698.50-127Q712-137 745-137L745-225Q724-225 700.50-219Q677-213 652.50-201Q628-189 612.50-165Q597-141 597-109Q597-80 611.50-53Q626-26 641-13L656 0L605 0L540 161L213 161L148 0L21 0L323 679L430 679L732 0Q685-57 685-94M254 263L499 263L377 552L254 263Z"  horiz-adv-x="753" vert-adv-y="1000"  />

      
      <glyph glyph-name="uni0105" unicode="&#x0105;" d="M543-94Q543-117 556.50-127Q570-137 603-137L603-225Q582-225 558.50-219Q535-213 510.50-201Q486-189 470.50-165Q455-141 455-109Q455-80 469.50-53Q484-26 499-13L514 0L482 0L483 53Q417-15 310-15Q193-15 116.50 64Q40 143 40 258Q40 373 116.50 452.50Q193 532 310 532Q419 532 484 467L484 517L591 517L591 0L590 0Q543-57 543-94M318 81Q392 81 441 129Q490 177 490 259Q490 341 441 388.50Q392 436 318 436Q246 436 197 384.50Q148 333 148 259Q148 185 197 133Q246 81 318 81Z"  horiz-adv-x="672" vert-adv-y="1000"  />

      
      <glyph glyph-name="uni0106" unicode="&#x0106;" d="M371 748L461 919L594 919L472 748L371 748M420-15Q256-17 149.50 87Q43 191 45 340Q43 489 149.50 593Q256 697 420 695Q552 695 640 635L640 520Q636 527 608.50 543.50Q581 560 527.50 576.50Q474 593 420 593Q299 593 228.50 521.50Q158 450 158 340Q158 230 228.50 159Q299 88 420 88Q488 88 552 107.50Q616 127 659 163L659 46Q658 46 650.50 41Q643 36 636.50 32.50Q630 29 617 23Q604 17 591 12Q578 7 558.50 2Q539-3 519.50-6.50Q500-10 474-12.50Q448-15 420-15Z"  horiz-adv-x="704" vert-adv-y="1000"  />

      
      <glyph glyph-name="uni0107" unicode="&#x0107;" d="M276 585L366 756L499 756L377 585L276 585M333-15Q194-15 117 62.50Q40 140 40 259Q40 374 119.50 453Q199 532 323 532Q442 532 508 470L508 359Q506 362 501 367.50Q496 373 478.50 386.50Q461 400 441.50 410Q422 420 390 428.50Q358 437 323 437Q247 437 196 385Q145 333 145 259Q145 178 196 129Q247 80 333 80Q387 80 433 93.50Q479 107 498 120L518 134L518 34Q486 9 433.50-3Q381-15 333-15Z"  horiz-adv-x="553" vert-adv-y="1000"  />

      
      <glyph glyph-name="uni010A" unicode="&#x010A;" d="M462 770.50Q462 770.50 453 761.75Q444 753 418 753Q392 753 374.50 770.50Q357 788 357 814Q357 840 374.50 858Q392 876 418 876Q444 876 462 858Q480 840 480 814Q480 788 462 770.50M420-15Q256-17 149.50 87Q43 191 45 340Q43 489 149.50 593Q256 697 420 695Q552 695 640 635L640 520Q636 527 608.50 543.50Q581 560 527.50 576.50Q474 593 420 593Q299 593 228.50 521.50Q158 450 158 340Q158 230 228.50 159Q299 88 420 88Q488 88 552 107.50Q616 127 659 163L659 46Q658 46 650.50 41Q643 36 636.50 32.50Q630 29 617 23Q604 17 591 12Q578 7 558.50 2Q539-3 519.50-6.50Q500-10 474-12.50Q448-15 420-15Z"  horiz-adv-x="704" vert-adv-y="1000"  />

      
      <glyph glyph-name="uni010B" unicode="&#x010B;" d="M323 590Q298 590 280 608Q262 626 262 651Q262 677 279.50 695Q297 713 323 713Q349 713 367 695Q385 677 385 651Q385 625 367 607.50Q349 590 323 590M333-15Q194-15 117 62.50Q40 140 40 259Q40 374 119.50 453Q199 532 323 532Q442 532 508 470L508 359Q506 362 501 367.50Q496 373 478.50 386.50Q461 400 441.50 410Q422 420 390 428.50Q358 437 323 437Q247 437 196 385Q145 333 145 259Q145 178 196 129Q247 80 333 80Q387 80 433 93.50Q479 107 498 120L518 134L518 34Q486 9 433.50-3Q381-15 333-15Z"  horiz-adv-x="553" vert-adv-y="1000"  />

      
      <glyph glyph-name="uni010C" unicode="&#x010C;" d="M362 748L257 919L358 919L419 836L479 919L580 919L475 748L362 748M420-15Q256-17 149.50 87Q43 191 45 340Q43 489 149.50 593Q256 697 420 695Q552 695 640 635L640 520Q636 527 608.50 543.50Q581 560 527.50 576.50Q474 593 420 593Q299 593 228.50 521.50Q158 450 158 340Q158 230 228.50 159Q299 88 420 88Q488 88 552 107.50Q616 127 659 163L659 46Q658 46 650.50 41Q643 36 636.50 32.50Q630 29 617 23Q604 17 591 12Q578 7 558.50 2Q539-3 519.50-6.50Q500-10 474-12.50Q448-15 420-15Z"  horiz-adv-x="704" vert-adv-y="1000"  />

      
      <glyph glyph-name="uni010D" unicode="&#x010D;" d="M267 585L162 756L263 756L324 673L384 756L485 756L380 585L267 585M333-15Q194-15 117 62.50Q40 140 40 259Q40 374 119.50 453Q199 532 323 532Q442 532 508 470L508 359Q506 362 501 367.50Q496 373 478.50 386.50Q461 400 441.50 410Q422 420 390 428.50Q358 437 323 437Q247 437 196 385Q145 333 145 259Q145 178 196 129Q247 80 333 80Q387 80 433 93.50Q479 107 498 120L518 134L518 34Q486 9 433.50-3Q381-15 333-15Z"  horiz-adv-x="553" vert-adv-y="1000"  />

      
      <glyph glyph-name="uni010E" unicode="&#x010E;" d="M436 748L323 748L218 919L319 919L380 836L440 919L541 919L436 748M336 679Q508 679 606.50 585Q705 491 705 340Q705 190 604 95Q503 0 336 0L90 0L90 679L336 679M328 103Q449 103 518.50 162Q588 221 592 340Q592 452 524.50 514.50Q457 577 327 577L199 577L199 103L328 103Z"  horiz-adv-x="760" vert-adv-y="1000"  />

      
      <glyph glyph-name="uni010F" unicode="&#x010F;" d="M310-15Q193-15 116.50 64Q40 143 40 258Q40 373 116.50 452.50Q193 532 310 532Q419 532 484 467L484 679L592 697L592 0L482 0L483 53Q417-15 310-15M647 541L671 697L780 697L714 541L647 541M318 81Q392 81 441 129Q490 177 490 259Q490 341 441 388.50Q392 436 318 436Q245 436 195 384.50Q145 333 145 259Q145 185 195.50 133Q246 81 318 81Z"  horiz-adv-x="750" vert-adv-y="1000"  />

      
      <glyph glyph-name="uni0110" unicode="&#x0110;" d="M366 679Q538 679 636.50 585Q735 491 735 340Q735 190 634 95Q533 0 366 0L120 0L120 297L0 297L0 387L120 387L120 679L366 679M358 103Q479 103 548.50 162Q618 221 622 340Q622 452 554.50 514.50Q487 577 357 577L229 577L229 387L347 387L347 297L229 297L229 103L358 103Z"  horiz-adv-x="790" vert-adv-y="1000"  />

      
      <glyph glyph-name="uni0111" unicode="&#x0111;" d="M654 627L654 537L592 537L592 0L482 0L483 53Q417-15 310-15Q193-15 116.50 64Q40 143 40 258Q40 373 116.50 452.50Q193 532 310 532Q419 532 484 467L484 537L397 537L397 627L484 627L484 679L592 697L592 627L654 627M318 81Q392 81 441 129Q490 177 490 259Q490 341 441 388.50Q392 436 318 436Q245 436 195 384.50Q145 333 145 259Q145 185 195.50 133Q246 81 318 81Z"  horiz-adv-x="664" vert-adv-y="1000"  />

      
      <glyph glyph-name="uni0112" unicode="&#x0112;" d="M479 853L479 763L202 763L202 853L479 853M199 102L592 102L592 0L90 0L90 679L586 679L586 577L199 577L199 413L507 413L507 311L199 311L199 102Z"  horiz-adv-x="642" vert-adv-y="1000"  />

      
      <glyph glyph-name="uni0113" unicode="&#x0113;" d="M180 600L180 690L457 690L457 600L180 600M326-15Q194-15 117 64Q40 143 40 259Q40 376 119.50 454Q199 532 319 532Q426 532 491 457.50Q556 383 556 283L556 233L143 233Q153 167 199.50 124Q246 81 328 81Q348 81 368 83Q388 85 405 88Q422 91 437.50 95Q453 99 465.50 103.50Q478 108 489 112.50Q500 117 508 121Q516 125 521.50 128Q527 131 530 133L533 135L533 38Q531 36 526 32.50Q521 29 503.50 19.50Q486 10 464.50 3Q443-4 405.50-9.50Q368-15 326-15M148 317L448 317Q446 336 439.50 354.50Q433 373 418 395Q403 417 374 430.50Q345 444 305 444Q231 444 193 402.50Q155 361 148 317Z"  horiz-adv-x="596" vert-adv-y="1000"  />

      
      <glyph glyph-name="uni0116" unicode="&#x0116;" d="M384 770.50Q384 770.50 375 761.75Q366 753 340 753Q314 753 296.50 770.50Q279 788 279 814Q279 840 296.50 858Q314 876 340 876Q366 876 384 858Q402 840 402 814Q402 788 384 770.50M199 102L592 102L592 0L90 0L90 679L586 679L586 577L199 577L199 413L507 413L507 311L199 311L199 102Z"  horiz-adv-x="642" vert-adv-y="1000"  />

      
      <glyph glyph-name="uni0117" unicode="&#x0117;" d="M362 607.50Q362 607.50 353 598.75Q344 590 318 590Q292 590 274.50 608Q257 626 257 651Q257 677 274.50 695Q292 713 318 713Q344 713 362 695Q380 677 380 651Q380 625 362 607.50M326-15Q194-15 117 64Q40 143 40 259Q40 376 119.50 454Q199 532 319 532Q426 532 491 457.50Q556 383 556 283L556 233L143 233Q153 167 199.50 124Q246 81 328 81Q348 81 368 83Q388 85 405 88Q422 91 437.50 95Q453 99 465.50 103.50Q478 108 489 112.50Q500 117 508 121Q516 125 521.50 128Q527 131 530 133L533 135L533 38Q531 36 526 32.50Q521 29 503.50 19.50Q486 10 464.50 3Q443-4 405.50-9.50Q368-15 326-15M148 317L448 317Q446 336 439.50 354.50Q433 373 418 395Q403 417 374 430.50Q345 444 305 444Q231 444 193 402.50Q155 361 148 317Z"  horiz-adv-x="596" vert-adv-y="1000"  />

      
      <glyph glyph-name="uni0118" unicode="&#x0118;" d="M545-94Q545-117 558.50-127Q572-137 605-137L605-225Q584-225 560.50-219Q537-213 512.50-201Q488-189 472.50-165Q457-141 457-109Q457-80 471.50-53Q486-26 501-13L516 0L90 0L90 679L586 679L586 577L199 577L199 413L507 413L507 311L199 311L199 102L592 102L592 0Q545-57 545-94Z"  horiz-adv-x="642" vert-adv-y="1000"  />

      
      <glyph glyph-name="uni0119" unicode="&#x0119;" d="M556 283L556 233L143 233Q153 167 199.50 124Q246 81 328 81Q348 81 368 83Q388 85 405 88Q422 91 437.50 95Q453 99 465.50 103.50Q478 108 489 112.50Q500 117 508 121Q516 125 521.50 128Q527 131 530 133L533 135L533 38L532 37L533 37Q486-20 486-57Q486-80 499.50-90Q513-100 546-100L546-188Q525-188 501.50-182Q478-176 453.50-164Q429-152 413.50-128Q398-104 398-72Q398-39 418-8Q372-15 326-15Q194-15 117 64Q40 143 40 259Q40 376 119.50 454Q199 532 319 532Q426 532 491 457.50Q556 383 556 283M148 317L448 317Q446 336 439.50 354.50Q433 373 418 395Q403 417 374 430.50Q345 444 305 444Q231 444 193 402.50Q155 361 148 317Z"  horiz-adv-x="596" vert-adv-y="1000"  />

      
      <glyph glyph-name="uni011A" unicode="&#x011A;" d="M397 748L284 748L179 919L280 919L341 836L401 919L502 919L397 748M199 102L592 102L592 0L90 0L90 679L586 679L586 577L199 577L199 413L507 413L507 311L199 311L199 102Z"  horiz-adv-x="642" vert-adv-y="1000"  />

      
      <glyph glyph-name="uni011B" unicode="&#x011B;" d="M262 585L157 756L258 756L319 673L379 756L480 756L375 585L262 585M326-15Q194-15 117 64Q40 143 40 259Q40 376 119.50 454Q199 532 319 532Q426 532 491 457.50Q556 383 556 283L556 233L143 233Q153 167 199.50 124Q246 81 328 81Q348 81 368 83Q388 85 405 88Q422 91 437.50 95Q453 99 465.50 103.50Q478 108 489 112.50Q500 117 508 121Q516 125 521.50 128Q527 131 530 133L533 135L533 38Q531 36 526 32.50Q521 29 503.50 19.50Q486 10 464.50 3Q443-4 405.50-9.50Q368-15 326-15M148 317L448 317Q446 336 439.50 354.50Q433 373 418 395Q403 417 374 430.50Q345 444 305 444Q231 444 193 402.50Q155 361 148 317Z"  horiz-adv-x="596" vert-adv-y="1000"  />

      
      <glyph glyph-name="uni011E" unicode="&#x011E;" d="M508.50 800Q508.50 800 488.25 774Q468 748 387 748Q306 748 266 800Q226 852 226 919L327 919Q327 891 342 863.50Q357 836 387 836Q417 836 432.50 863.50Q448 891 448 919L549 919Q549 852 508.50 800M407-15Q252-15 150 88.50Q48 192 50 340Q48 489 154.50 593Q261 697 425 695Q512 695 572 673Q636 652 664 634L664 518Q637 541 576 566Q514 593 425 593Q304 593 233.50 521.50Q163 450 163 340Q163 233 232 160Q301 87 407 87Q510 87 591 148L591 295L388 295L388 397L700 397L700 0L591 0L591 35Q511-15 407-15Z"  horiz-adv-x="776" vert-adv-y="1000"  />

      
      <glyph glyph-name="uni011F" unicode="&#x011F;" d="M441.50 637Q441.50 637 421.25 611Q401 585 320 585Q239 585 199 637Q159 689 159 756L260 756Q260 728 275 700.50Q290 673 320 673Q350 673 365.50 700.50Q381 728 381 756L482 756Q482 689 441.50 637M295-225Q228-225 176-211.50Q124-198 106-185L88-172L88-75Q97-81 113-90Q129-99 182-114Q235-129 291-129Q482-129 482 40L482 52Q417-15 310-15Q193-15 116.50 64Q40 143 40 258Q40 373 116.50 452.50Q193 532 310 532Q419 532 484 467L484 517L592 517L590 54Q590-69 518-147Q446-225 295-225M318 81Q392 81 441 129Q490 177 490 259Q490 341 441 388.50Q392 436 318 436Q246 436 197 384.50Q148 333 148 259Q148 185 197 133Q246 81 318 81Z"  horiz-adv-x="645" vert-adv-y="1000"  />

      
      <glyph glyph-name="uni0120" unicode="&#x0120;" d="M387 753Q362 753 344 770.50Q326 788 326 814Q326 840 343.50 858Q361 876 387 876Q413 876 431 858Q449 840 449 814Q449 788 431 770.50Q413 753 387 753M407-15Q252-15 150 88.50Q48 192 50 340Q48 489 154.50 593Q261 697 425 695Q512 695 572 673Q636 652 664 634L664 518Q637 541 576 566Q514 593 425 593Q304 593 233.50 521.50Q163 450 163 340Q163 233 232 160Q301 87 407 87Q510 87 591 148L591 295L388 295L388 397L700 397L700 0L591 0L591 35Q511-15 407-15Z"  horiz-adv-x="776" vert-adv-y="1000"  />

      
      <glyph glyph-name="uni0121" unicode="&#x0121;" d="M364 607.50Q364 607.50 355 598.75Q346 590 320 590Q294 590 276.50 608Q259 626 259 651Q259 677 276.50 695Q294 713 320 713Q346 713 364 695Q382 677 382 651Q382 625 364 607.50M295-225Q228-225 176-211.50Q124-198 106-185L88-172L88-75Q97-81 113-90Q129-99 182-114Q235-129 291-129Q482-129 482 40L482 52Q417-15 310-15Q193-15 116.50 64Q40 143 40 258Q40 373 116.50 452.50Q193 532 310 532Q419 532 484 467L484 517L592 517L590 54Q590-69 518-147Q446-225 295-225M318 81Q392 81 441 129Q490 177 490 259Q490 341 441 388.50Q392 436 318 436Q246 436 197 384.50Q148 333 148 259Q148 185 197 133Q246 81 318 81Z"  horiz-adv-x="645" vert-adv-y="1000"  />

      
      <glyph glyph-name="uni0122" unicode="&#x0122;" d="M407-15Q252-15 150 88.50Q48 192 50 340Q48 489 154.50 593Q261 697 425 695Q512 695 572 673Q636 652 664 634L664 518Q637 541 576 566Q514 593 425 593Q304 593 233.50 521.50Q163 450 163 340Q163 233 232 160Q301 87 407 87Q510 87 591 148L591 295L388 295L388 397L700 397L700 0L591 0L591 35Q511-15 407-15M271-219L361-48L474-48L352-219L271-219Z"  horiz-adv-x="776" vert-adv-y="1000"  />

      
      <glyph glyph-name="uni0123" unicode="&#x0123;" d="M255 585L377 756L478 756L388 585L255 585M295-225Q228-225 176-211.50Q124-198 106-185L88-172L88-75Q97-81 113-90Q129-99 182-114Q235-129 291-129Q482-129 482 40L482 52Q417-15 310-15Q193-15 116.50 64Q40 143 40 258Q40 373 116.50 452.50Q193 532 310 532Q419 532 484 467L484 517L592 517L590 54Q590-69 518-147Q446-225 295-225M318 81Q392 81 441 129Q490 177 490 259Q490 341 441 388.50Q392 436 318 436Q246 436 197 384.50Q148 333 148 259Q148 185 197 133Q246 81 318 81Z"  horiz-adv-x="645" vert-adv-y="1000"  />

      
      <glyph glyph-name="uni0126" unicode="&#x0126;" d="M716 594L716 504L661 504L661 0L552 0L552 311L199 311L199 0L90 0L90 504L35 504L35 594L90 594L90 679L199 679L199 594L552 594L552 679L661 679L661 594L716 594M552 413L552 504L199 504L199 413L552 413Z"  horiz-adv-x="751" vert-adv-y="1000"  />

      
      <glyph glyph-name="uni0127" unicode="&#x0127;" d="M332 533Q423 533 481.50 477Q540 421 540 318L540 0L432 0L432 307Q432 369 401 403Q370 437 316 437Q256 437 213.50 398.50Q171 360 171 291L171 0L63 0L63 537L0 537L0 627L63 627L63 679L171 697L171 627L257 627L257 537L171 537L171 453Q172 456 175.50 461.50Q179 467 191.50 481Q204 495 220.50 505.50Q237 516 267 524.50Q297 533 332 533Z"  horiz-adv-x="610" vert-adv-y="1000"  />

      
      <glyph glyph-name="uni012A" unicode="&#x012A;" d="M6 763L6 853L283 853L283 763L6 763M90 0L90 679L199 679L199 0L90 0Z"  horiz-adv-x="289" vert-adv-y="1000"  />

      
      <glyph glyph-name="uni012B" unicode="&#x012B;" d="M2 600L2 690L279 690L279 600L2 600M86 0L86 517L194 517L194 0L86 0Z"  horiz-adv-x="274" vert-adv-y="1000"  />

      
      <glyph glyph-name="uni012E" unicode="&#x012E;" d="M146-85Q146-108 159.50-118Q173-128 206-128L206-216Q185-216 161.50-210Q138-204 113.50-192Q89-180 73.50-156Q58-132 58-100Q58-46 107 0L90 0L90 679L199 679L199 0L186 0Q146-55 146-85Z"  horiz-adv-x="289" vert-adv-y="1000"  />

      
      <glyph glyph-name="uni012F" unicode="&#x012F;" d="M141 591Q116 591 98 608.50Q80 626 80 652Q80 678 97.50 696Q115 714 141 714Q167 714 185 696Q203 678 203 652Q203 626 185 608.50Q167 591 141 591M153-94Q153-117 166.50-127Q180-137 213-137L213-225Q192-225 168.50-219Q145-213 120.50-201Q96-189 80.50-165Q65-141 65-109Q65-80 79.50-53Q94-26 109-13L124 0L92 0L92 518L200 518L200 0Q153-57 153-94Z"  horiz-adv-x="283" vert-adv-y="1000"  />

      
      <glyph glyph-name="uni0130" unicode="&#x0130;" d="M188 770.50Q188 770.50 179 761.75Q170 753 144 753Q118 753 100.50 770.50Q83 788 83 814Q83 840 100.50 858Q118 876 144 876Q170 876 188 858Q206 840 206 814Q206 788 188 770.50M90 0L90 679L199 679L199 0L90 0Z"  horiz-adv-x="289" vert-adv-y="1000"  />

      
      <glyph glyph-name="uni0131" unicode="&#x0131;" d="M86 0L86 517L194 517L194 0L86 0Z"  horiz-adv-x="274" vert-adv-y="1000"  />

      
      <glyph glyph-name="uni0136" unicode="&#x0136;" d="M90 0L90 679L198 679L198 370L526 679L668 679L368 404L668 0L532 0L289 329L198 243L198 0L90 0M200-210L290-39L403-39L281-210L200-210Z"  horiz-adv-x="686" vert-adv-y="1000"  />

      
      <glyph glyph-name="uni0137" unicode="&#x0137;" d="M316 324L586 0L447 0L236 258L188 217L188 0L80 0L80 679L188 697L188 335L406 517L546 517L316 324M176-210L266-39L379-39L257-210L176-210Z"  horiz-adv-x="576" vert-adv-y="1000"  />

      
      <glyph glyph-name="uni0139" unicode="&#x0139;" d="M90 748L180 919L313 919L191 748L90 748M90 0L90 679L198 679L198 102L610 102L610 0L90 0Z"  horiz-adv-x="648" vert-adv-y="1000"  />

      
      <glyph glyph-name="uni013A" unicode="&#x013A;" d="M81 748L171 919L304 919L182 748L81 748M80 0L80 679L188 697L188 0L80 0Z"  horiz-adv-x="268" vert-adv-y="1000"  />

      
      <glyph glyph-name="uni013B" unicode="&#x013B;" d="M90 0L90 679L198 679L198 102L610 102L610 0L90 0M186-210L276-39L389-39L267-210L186-210Z"  horiz-adv-x="648" vert-adv-y="1000"  />

      
      <glyph glyph-name="uni013C" unicode="&#x013C;" d="M80 0L80 679L188 697L188 0L80 0M-12-210L78-39L191-39L69-210L-12-210Z"  horiz-adv-x="268" vert-adv-y="1000"  />

      
      <glyph glyph-name="uni013D" unicode="&#x013D;" d="M90 0L90 679L198 679L198 102L610 102L610 0L90 0M338 523L362 679L471 679L405 523L338 523Z"  horiz-adv-x="648" vert-adv-y="1000"  />

      
      <glyph glyph-name="uni013E" unicode="&#x013E;" d="M80 0L80 679L188 697L188 0L80 0M244 541L268 697L377 697L311 541L244 541Z"  horiz-adv-x="347" vert-adv-y="1000"  />

      
      <glyph glyph-name="uni013F" unicode="&#x013F;" d="M90 0L90 679L198 679L198 102L610 102L610 0L90 0M402 266Q368 266 345 289Q322 312 322 346Q322 379 345 402.50Q368 426 402 426Q435 426 458.50 402.50Q482 379 482 346Q482 312 458.50 289Q435 266 402 266Z"  horiz-adv-x="648" vert-adv-y="1000"  />

      
      <glyph glyph-name="uni0140" unicode="&#x0140;" d="M80 0L80 679L188 697L188 0L80 0M305 266Q270 266 247.50 289Q225 312 225 346Q225 379 248 402.50Q271 426 305 426Q338 426 361.50 402.50Q385 379 385 346Q385 312 361.50 289Q338 266 305 266Z"  horiz-adv-x="405" vert-adv-y="1000"  />

      
      <glyph glyph-name="uni0141" unicode="&#x0141;" d="M198 102L610 102L610 0L90 0L90 318L-29 318L-29 408L90 408L90 679L198 679L198 408L318 408L318 318L198 318L198 102Z"  horiz-adv-x="648" vert-adv-y="1000"  />

      
      <glyph glyph-name="uni0142" unicode="&#x0142;" d="M283 459L188 367L188 0L80 0L80 263L35 220L-23 288L80 387L80 679L188 697L188 491L225 527L283 459Z"  horiz-adv-x="268" vert-adv-y="1000"  />

      
      <glyph glyph-name="uni0143" unicode="&#x0143;" d="M338 748L428 919L561 919L439 748L338 748M90 0L90 679L215 679L573 165L573 679L681 679L681 0L560 0L198 523L198 0L90 0Z"  horiz-adv-x="771" vert-adv-y="1000"  />

      
      <glyph glyph-name="uni0144" unicode="&#x0144;" d="M524 756L402 585L301 585L391 756L524 756M355 533Q446 533 504.50 477Q563 421 563 318L563 0L455 0L455 307Q455 369 424 403Q393 437 339 437Q279 437 236.50 398.50Q194 360 194 291L194 0L86 0L86 517L194 517L194 453Q195 456 198.50 461.50Q202 467 214.50 481Q227 495 243.50 505.50Q260 516 290 524.50Q320 533 355 533Z"  horiz-adv-x="633" vert-adv-y="1000"  />

      
      <glyph glyph-name="uni0145" unicode="&#x0145;" d="M90 0L90 679L215 679L573 165L573 679L681 679L681 0L560 0L198 523L198 0L90 0M248-210L338-39L451-39L329-210L248-210Z"  horiz-adv-x="771" vert-adv-y="1000"  />

      
      <glyph glyph-name="uni0146" unicode="&#x0146;" d="M355 533Q446 533 504.50 477Q563 421 563 318L563 0L455 0L455 307Q455 369 424 403Q393 437 339 437Q279 437 236.50 398.50Q194 360 194 291L194 0L86 0L86 517L194 517L194 453Q195 456 198.50 461.50Q202 467 214.50 481Q227 495 243.50 505.50Q260 516 290 524.50Q320 533 355 533M176-210L266-39L379-39L257-210L176-210Z"  horiz-adv-x="633" vert-adv-y="1000"  />

      
      <glyph glyph-name="uni0147" unicode="&#x0147;" d="M329 748L224 919L325 919L386 836L446 919L547 919L442 748L329 748M90 0L90 679L215 679L573 165L573 679L681 679L681 0L560 0L198 523L198 0L90 0Z"  horiz-adv-x="771" vert-adv-y="1000"  />

      
      <glyph glyph-name="uni0148" unicode="&#x0148;" d="M405 585L292 585L187 756L288 756L349 673L409 756L510 756L405 585M355 533Q446 533 504.50 477Q563 421 563 318L563 0L455 0L455 307Q455 369 424 403Q393 437 339 437Q279 437 236.50 398.50Q194 360 194 291L194 0L86 0L86 517L194 517L194 453Q195 456 198.50 461.50Q202 467 214.50 481Q227 495 243.50 505.50Q260 516 290 524.50Q320 533 355 533Z"  horiz-adv-x="633" vert-adv-y="1000"  />

      
      <glyph glyph-name="uni014A" unicode="&#x014A;" d="M573 679L681 679L681-31Q681-57 677.50-81Q674-105 663-132Q652-159 635-178.50Q618-198 588.50-211Q559-224 521-224Q472-224 435.50-208Q399-192 387-176L375-161L375-49Q381-58 391.50-71Q402-84 436-106Q470-128 506-128Q542-128 557.50-102.50Q573-77 573-40L573 0L560 0L198 523L198 0L90 0L90 679L215 679L573 165L573 679Z"  horiz-adv-x="771" vert-adv-y="1000"  />

      
      <glyph glyph-name="uni014B" unicode="&#x014B;" d="M355 533Q446 533 504.50 477Q563 421 563 318L563-31Q563-57 559.50-81Q556-105 545-132Q534-159 517-178.50Q500-198 470.50-211Q441-224 403-224Q354-224 317.50-208Q281-192 269-176L257-161L257-49Q263-58 273.50-71Q284-84 318-106Q352-128 388-128Q424-128 439.50-102.50Q455-77 455-40L455 307Q455 369 424 403Q393 437 339 437Q279 437 236.50 398.50Q194 360 194 291L194 0L86 0L86 517L194 517L194 453Q195 456 198.50 461.50Q202 467 214.50 481Q227 495 243.50 505.50Q260 516 290 524.50Q320 533 355 533Z"  horiz-adv-x="633" vert-adv-y="1000"  />

      
      <glyph glyph-name="uni014C" unicode="&#x014C;" d="M263 763L263 853L540 853L540 763L263 763M401-15Q248-17 145.50 87.50Q43 192 45 340Q43 488 145.50 592.50Q248 697 401 695Q554 697 657 592.50Q760 488 758 340Q760 192 657 87.50Q554-17 401-15M401 88Q511 88 578 159.50Q645 231 645 340Q645 449 578 521Q511 593 401 593Q292 593 224.50 521Q157 449 157 340Q157 231 224.50 159.50Q292 88 401 88Z"  horiz-adv-x="803" vert-adv-y="1000"  />

      
      <glyph glyph-name="uni014D" unicode="&#x014D;" d="M184 600L184 690L461 690L461 600L184 600M523.50 65Q523.50 65 482.25 25Q441-15 323-15Q205-15 122.50 65Q40 145 40 258Q40 371 122.50 451.50Q205 532 323 532Q441 532 523.50 451.50Q606 371 606 258Q606 145 523.50 65M195.50 133.50Q195.50 133.50 221.25 107.75Q247 82 323 82Q399 82 450.50 133.50Q502 185 502 258Q502 332 450.50 383.50Q399 435 323 435Q247 435 195.50 383.50Q144 332 144 258Q144 185 195.50 133.50Z"  horiz-adv-x="646" vert-adv-y="1000"  />

      
      <glyph glyph-name="uni0150" unicode="&#x0150;" d="M265 748L355 919L488 919L366 748L265 748M445 748L545 919L678 919L546 748L445 748M401-15Q248-17 145.50 87.50Q43 192 45 340Q43 488 145.50 592.50Q248 697 401 695Q554 697 657 592.50Q760 488 758 340Q760 192 657 87.50Q554-17 401-15M401 88Q511 88 578 159.50Q645 231 645 340Q645 449 578 521Q511 593 401 593Q292 593 224.50 521Q157 449 157 340Q157 231 224.50 159.50Q292 88 401 88Z"  horiz-adv-x="803" vert-adv-y="1000"  />

      
      <glyph glyph-name="uni0151" unicode="&#x0151;" d="M186 585L276 756L409 756L287 585L186 585M366 585L466 756L599 756L467 585L366 585M523.50 65Q523.50 65 482.25 25Q441-15 323-15Q205-15 122.50 65Q40 145 40 258Q40 371 122.50 451.50Q205 532 323 532Q441 532 523.50 451.50Q606 371 606 258Q606 145 523.50 65M195.50 133.50Q195.50 133.50 221.25 107.75Q247 82 323 82Q399 82 450.50 133.50Q502 185 502 258Q502 332 450.50 383.50Q399 435 323 435Q247 435 195.50 383.50Q144 332 144 258Q144 185 195.50 133.50Z"  horiz-adv-x="646" vert-adv-y="1000"  />

      
      <glyph glyph-name="uni0152" unicode="&#x0152;" d="M754 102L1147 102L1147 0L645 0L645 76Q543-16 401-15Q248-17 145.50 87.50Q43 192 45 340Q43 488 145.50 592.50Q248 697 401 695Q543 696 645 604L645 679L1141 679L1141 577L754 577L754 413L1062 413L1062 311L754 311L754 102M401 88Q511 88 578 159.50Q645 231 645 340Q645 449 578 521Q511 593 401 593Q292 593 224.50 521Q157 449 157 340Q157 231 224.50 159.50Q292 88 401 88Z"  horiz-adv-x="1197" vert-adv-y="1000"  />

      
      <glyph glyph-name="uni0153" unicode="&#x0153;" d="M1018 283L1018 233L605 233Q615 167 661.50 124Q708 81 790 81Q810 81 830 83Q850 85 867 88Q884 91 899.50 95Q915 99 927.50 103.50Q940 108 951 112.50Q962 117 970 121Q978 125 983.50 128Q989 131 992 133L995 135L995 38Q993 36 988 32.50Q983 29 965.50 19.50Q948 10 926.50 3Q905-4 867.50-9.50Q830-15 788-15Q631-15 551 96Q512 45 452 15Q392-15 323-15Q205-15 122.50 65Q40 145 40 258Q40 371 122.50 451.50Q205 532 323 532Q392 532 452.50 501.50Q513 471 552 419Q589 472 649 502Q709 532 781 532Q888 532 953 457.50Q1018 383 1018 283M610 317L910 317Q908 336 901.50 354.50Q895 373 880 395Q865 417 836 430.50Q807 444 767 444Q693 444 655 402.50Q617 361 610 317M195.50 133.50Q195.50 133.50 221.25 107.75Q247 82 323 82Q399 82 450.50 133.50Q502 185 502 258Q502 332 450.50 383.50Q399 435 323 435Q247 435 195.50 383.50Q144 332 144 258Q144 185 195.50 133.50Z"  horiz-adv-x="1058" vert-adv-y="1000"  />

      
      <glyph glyph-name="uni0154" unicode="&#x0154;" d="M496 919L374 748L273 748L363 919L496 919M466 272L668 0L532 0L338 263L199 263L199 0L90 0L90 679L389 679Q494 679 561.50 624Q629 569 629 471Q629 394 585 342.50Q541 291 466 272M199 363L381 363Q440 363 478.50 390Q517 417 517 469Q517 522 478.50 549.50Q440 577 381 577L199 577L199 363Z"  horiz-adv-x="689" vert-adv-y="1000"  />

      
      <glyph glyph-name="uni0155" unicode="&#x0155;" d="M177 585L267 756L400 756L278 585L177 585M80 0L80 518L188 518L188 418Q207 468 264 500.50Q321 533 400 533L400 444Q303 444 246.50 393.50Q190 343 188 259L188 0L80 0Z"  horiz-adv-x="410" vert-adv-y="1000"  />

      
      <glyph glyph-name="uni0156" unicode="&#x0156;" d="M466 272L668 0L532 0L338 263L199 263L199 0L90 0L90 679L389 679Q494 679 561.50 624Q629 569 629 471Q629 394 585 342.50Q541 291 466 272M199 363L381 363Q440 363 478.50 390Q517 417 517 469Q517 522 478.50 549.50Q440 577 381 577L199 577L199 363M224-210L314-39L427-39L305-210L224-210Z"  horiz-adv-x="689" vert-adv-y="1000"  />

      
      <glyph glyph-name="uni0157" unicode="&#x0157;" d="M80 0L80 518L188 518L188 418Q207 468 264 500.50Q321 533 400 533L400 444Q303 444 246.50 393.50Q190 343 188 259L188 0L80 0M-11-210L79-39L192-39L70-210L-11-210Z"  horiz-adv-x="410" vert-adv-y="1000"  />

      
      <glyph glyph-name="uni0158" unicode="&#x0158;" d="M377 748L264 748L159 919L260 919L321 836L381 919L482 919L377 748M466 272L668 0L532 0L338 263L199 263L199 0L90 0L90 679L389 679Q494 679 561.50 624Q629 569 629 471Q629 394 585 342.50Q541 291 466 272M199 363L381 363Q440 363 478.50 390Q517 417 517 469Q517 522 478.50 549.50Q440 577 381 577L199 577L199 363Z"  horiz-adv-x="689" vert-adv-y="1000"  />

      
      </font>
</defs>
</svg>
